<svg width="24" height="24" viewBox="0 0 24 24" fill="none" xmlns="http://www.w3.org/2000/svg">
<path d="M17.7581 6.07381L18.5612 5.27074V5.27074L17.7581 6.07381ZM13.2629 6.07381L14.066 6.87688L13.2629 6.07381ZM16.4231 11.9041L15.62 11.101C15.1765 11.5445 15.1765 12.2636 15.62 12.7071L16.4231 11.9041ZM17.864 13.345L17.061 14.1481H17.061L17.864 13.345ZM13.4505 17.7586L14.2536 16.9555V16.9555L13.4505 17.7586ZM12.0095 16.3176L12.8126 15.5145C12.3691 15.071 11.65 15.071 11.2065 15.5145L12.0095 16.3176ZM10.5688 17.7584L11.3718 18.5614H11.3718L10.5688 17.7584ZM6.07356 13.2632L6.87664 14.0662L6.07356 13.2632ZM7.51434 11.8224L8.31741 12.6255C8.5304 12.4125 8.65006 12.1236 8.65006 11.8224C8.65006 11.5212 8.5304 11.2323 8.31741 11.0193L7.51434 11.8224ZM6.17946 10.4875L5.37639 11.2906H5.37639L6.17946 10.4875ZM6.17947 6.07399L6.98254 6.87706L6.17947 6.07399ZM10.593 6.07399L9.78993 6.87706L10.593 6.07399ZM11.9279 7.40887L11.1248 8.21194C11.3378 8.42492 11.6267 8.54458 11.9279 8.54458C12.2291 8.54458 12.518 8.42492 12.7309 8.21194L11.9279 7.40887ZM18.5612 5.27074C16.8764 3.5859 14.1447 3.5859 12.4599 5.27074L14.066 6.87688C14.8638 6.07909 16.1573 6.07909 16.9551 6.87688L18.5612 5.27074ZM18.5612 11.3721C20.246 9.68724 20.246 6.95558 18.5612 5.27074L16.9551 6.87688C17.7528 7.67467 17.7528 8.96814 16.9551 9.76593L18.5612 11.3721ZM17.2261 12.7071L18.5612 11.3721L16.9551 9.76593L15.62 11.101L17.2261 12.7071ZM15.62 12.7071L17.061 14.1481L18.6671 12.542L17.2261 11.101L15.62 12.7071ZM17.061 14.1481C17.8362 14.9233 17.8362 16.1802 17.061 16.9555L18.6671 18.5616C20.3294 16.8993 20.3294 14.2042 18.6671 12.542L17.061 14.1481ZM17.061 16.9555C16.2857 17.7307 15.0288 17.7307 14.2536 16.9555L12.6474 18.5616C14.3097 20.2239 17.0048 20.2239 18.6671 18.5616L17.061 16.9555ZM14.2536 16.9555L12.8126 15.5145L11.2065 17.1207L12.6474 18.5616L14.2536 16.9555ZM11.3718 18.5614L12.8126 17.1207L11.2065 15.5145L9.76569 16.9553L11.3718 18.5614ZM5.27049 18.5614C6.95533 20.2463 9.687 20.2463 11.3718 18.5614L9.76569 16.9553C8.9679 17.7531 7.67443 17.7531 6.87664 16.9553L5.27049 18.5614ZM5.27049 12.4601C3.58565 14.1449 3.58565 16.8766 5.27049 18.5614L6.87664 16.9553C6.07884 16.1575 6.07884 14.864 6.87664 14.0662L5.27049 12.4601ZM6.71127 11.0193L5.27049 12.4601L6.87664 14.0662L8.31741 12.6255L6.71127 11.0193ZM8.31741 11.0193L6.98254 9.68445L5.37639 11.2906L6.71127 12.6255L8.31741 11.0193ZM6.98254 9.68445C6.2073 8.90921 6.2073 7.6523 6.98254 6.87706L5.37639 5.27092C3.71411 6.9332 3.71411 9.6283 5.37639 11.2906L6.98254 9.68445ZM6.98254 6.87706C7.75778 6.10182 9.01469 6.10182 9.78993 6.87706L11.3961 5.27092C9.73378 3.60863 7.03868 3.60863 5.37639 5.27092L6.98254 6.87706ZM9.78993 6.87706L11.1248 8.21194L12.7309 6.60579L11.3961 5.27092L9.78993 6.87706ZM12.4599 5.27074L11.1248 6.60579L12.7309 8.21194L14.066 6.87688L12.4599 5.27074Z" fill="url(#paint0_linear_434_5094)"/>
<defs>
<linearGradient id="paint0_linear_434_5094" x1="11.9604" y1="5.14282" x2="11.9604" y2="18.6894" gradientUnits="userSpaceOnUse">
<stop stop-color="#12D8B5"/>
<stop offset="1" stop-color="#0ED86C"/>
</linearGradient>
</defs>
</svg>
