<svg width="16" height="16" viewBox="0 0 16 16" fill="none" xmlns="http://www.w3.org/2000/svg">
<path fill-rule="evenodd" clip-rule="evenodd" d="M8.60011 4.11099C8.60011 3.77962 8.33148 3.51099 8.00011 3.51099C7.66874 3.51099 7.40011 3.77962 7.40011 4.11099V7.39998H4.11123C3.77986 7.39998 3.51123 7.66861 3.51123 7.99998C3.51123 8.33135 3.77986 8.59998 4.11123 8.59998H7.40011V11.8888C7.40011 12.2201 7.66874 12.4888 8.00011 12.4888C8.33148 12.4888 8.60011 12.2201 8.60011 11.8888V8.59998H11.889C12.2204 8.59998 12.489 8.33135 12.489 7.99998C12.489 7.66861 12.2204 7.39998 11.889 7.39998H8.60011V4.11099Z" fill="white"/>
</svg>
