<svg width="24" height="24" viewBox="0 0 24 24" fill="none" xmlns="http://www.w3.org/2000/svg">
<path d="M4.5 7H6.16667H19.5" stroke="white" stroke-width="1.66667" stroke-linecap="round" stroke-linejoin="round"/>
<path d="M17.8334 7.00008V18.6667C17.8334 19.1088 17.6578 19.5327 17.3452 19.8453C17.0326 20.1578 16.6087 20.3334 16.1667 20.3334H7.83335C7.39133 20.3334 6.9674 20.1578 6.65484 19.8453C6.34228 19.5327 6.16669 19.1088 6.16669 18.6667V7.00008M8.66669 7.00008V5.33341C8.66669 4.89139 8.84228 4.46746 9.15484 4.1549C9.4674 3.84234 9.89133 3.66675 10.3334 3.66675H13.6667C14.1087 3.66675 14.5326 3.84234 14.8452 4.1549C15.1578 4.46746 15.3334 4.89139 15.3334 5.33341V7.00008" stroke="white" stroke-width="1.66667" stroke-linecap="round" stroke-linejoin="round"/>
<path d="M10.3333 11.1667V16.1667" stroke="white" stroke-width="1.66667" stroke-linecap="round" stroke-linejoin="round"/>
<path d="M13.6667 11.1667V16.1667" stroke="white" stroke-width="1.66667" stroke-linecap="round" stroke-linejoin="round"/>
</svg>
