<svg width="16" height="16" viewBox="0 0 16 16" fill="none" xmlns="http://www.w3.org/2000/svg">
<path fill-rule="evenodd" clip-rule="evenodd" d="M11.7261 5.05948C11.9431 4.84252 11.9431 4.49076 11.7261 4.2738C11.5092 4.05684 11.1574 4.05684 10.9405 4.2738L7.99997 7.2143L5.05948 4.2738C4.84252 4.05684 4.49076 4.05684 4.2738 4.2738C4.05684 4.49076 4.05684 4.84252 4.2738 5.05948L7.2143 7.99997L4.2738 10.9405C4.05684 11.1574 4.05684 11.5092 4.2738 11.7261C4.49076 11.9431 4.84252 11.9431 5.05948 11.7261L7.99997 8.78565L10.9405 11.7261C11.1574 11.9431 11.5092 11.9431 11.7261 11.7261C11.9431 11.5092 11.9431 11.1574 11.7261 10.9405L8.78565 7.99997L11.7261 5.05948Z" fill="white"/>
</svg>
