<svg width="60" height="60" viewBox="0 0 60 60" fill="none" xmlns="http://www.w3.org/2000/svg">
<rect width="60" height="60" rx="4.44444" fill="#101013"/>
<path opacity="0.2" fill-rule="evenodd" clip-rule="evenodd" d="M31.1785 32.7634C31.353 32.6657 31.5171 32.5428 31.6654 32.3944L34.7418 29.318C34.7443 29.3155 34.7468 29.313 34.7494 29.3104L45.5055 18.5542C46.3734 17.6864 46.3734 16.2794 45.5055 15.4115L42.4291 12.3351C41.5613 11.4673 40.1543 11.4673 39.2864 12.3351L30.094 21.5276L20.9015 12.3351C20.0337 11.4673 18.6267 11.4673 17.7588 12.3351L14.6824 15.4115C13.8146 16.2793 13.8146 17.6864 14.6824 18.5542L25.4321 29.3039C25.4368 29.3086 25.4415 29.3134 25.4462 29.3181L28.5226 32.3945C29.2421 33.114 30.3323 33.237 31.1785 32.7634Z" fill="#4353FF"/>
<path opacity="0.35" fill-rule="evenodd" clip-rule="evenodd" d="M31.1845 38.0937C31.3567 37.9967 31.5187 37.8748 31.6654 37.7282L34.7418 34.6518C34.7443 34.6492 34.7468 34.6467 34.7494 34.6442L45.5055 23.888C46.3734 23.0201 46.3734 21.6131 45.5055 20.7453L42.4291 17.6689C41.5613 16.801 40.1543 16.801 39.2864 17.6689L30.094 26.8613L20.9015 17.6688C20.0337 16.801 18.6267 16.801 17.7588 17.6688L14.6824 20.7452C13.8146 21.6131 13.8146 23.0201 14.6824 23.8879L25.432 34.6375C25.4367 34.6423 25.4414 34.647 25.4462 34.6518L28.5226 37.7282C29.2438 38.4495 30.3375 38.5713 31.1845 38.0937Z" fill="#4353FF"/>
<path opacity="0.65" fill-rule="evenodd" clip-rule="evenodd" d="M31.1606 43.3458C31.3417 43.2466 31.512 43.1204 31.6654 42.9669L34.7418 39.8905C34.7444 39.888 34.7469 39.8854 34.7495 39.8828L45.5055 29.1267C46.3734 28.2589 46.3734 26.8519 45.5055 25.9841L42.4291 22.9076C41.5613 22.0398 40.1543 22.0398 39.2864 22.9076L30.094 32.1001L20.9015 22.9076C20.0337 22.0398 18.6267 22.0398 17.7588 22.9076L14.6824 25.984C13.8146 26.8518 13.8146 28.2589 14.6824 29.1267L25.4321 39.8764C25.4368 39.8811 25.4415 39.8859 25.4462 39.8906L28.5226 42.967C29.237 43.6814 30.3169 43.8077 31.1606 43.3458Z" fill="#4353FF"/>
<g filter="url(#filter0_d_491_368)">
<path fill-rule="evenodd" clip-rule="evenodd" d="M31.1787 48.6692C31.3531 48.5716 31.5172 48.4486 31.6655 48.3003L34.7419 45.2239C34.7444 45.2214 34.7469 45.2189 34.7494 45.2164L45.5057 34.4601C46.3735 33.5923 46.3735 32.1853 45.5057 31.3174L42.4293 28.241C41.5614 27.3732 40.1544 27.3732 39.2866 28.241L30.0941 37.4334L20.9017 28.241C20.0338 27.3731 18.6268 27.3731 17.759 28.241L14.6826 31.3174C13.8147 32.1852 13.8147 33.5922 14.6826 34.4601L25.4324 45.2099C25.437 45.2146 25.4416 45.2193 25.4463 45.224L28.5227 48.3004C29.2423 49.0199 30.3324 49.1429 31.1787 48.6692Z" fill="#4353FF"/>
</g>
<defs>
<filter id="filter0_d_491_368" x="8.6984" y="22.2568" width="42.7914" height="32.0279" filterUnits="userSpaceOnUse" color-interpolation-filters="sRGB">
<feFlood flood-opacity="0" result="BackgroundImageFix"/>
<feColorMatrix in="SourceAlpha" type="matrix" values="0 0 0 0 0 0 0 0 0 0 0 0 0 0 0 0 0 0 127 0" result="hardAlpha"/>
<feOffset/>
<feGaussianBlur stdDeviation="2.66667"/>
<feComposite in2="hardAlpha" operator="out"/>
<feColorMatrix type="matrix" values="0 0 0 0 0 0 0 0 0 0 0 0 0 0 0 0 0 0 0.1 0"/>
<feBlend mode="normal" in2="BackgroundImageFix" result="effect1_dropShadow_491_368"/>
<feBlend mode="normal" in="SourceGraphic" in2="effect1_dropShadow_491_368" result="shape"/>
</filter>
</defs>
</svg>
