<svg width="161" height="160" viewBox="0 0 161 160" fill="none" xmlns="http://www.w3.org/2000/svg">
<g opacity="0.8">
<rect x="86.7411" y="72.2411" width="68.5179" height="19.3197" rx="9.65985" fill="#333EB3"/>
<rect x="86.7411" y="72.2411" width="68.5179" height="19.3197" rx="9.65985" stroke="#4353FF" stroke-width="0.482143"/>
<path fill-rule="evenodd" clip-rule="evenodd" d="M98.5502 80.0256C98.5502 79.9191 98.4638 79.8328 98.3573 79.8328C98.2508 79.8328 98.1644 79.9191 98.1644 80.0256V81.7078H96.4824C96.3759 81.7078 96.2896 81.7942 96.2896 81.9007C96.2896 82.0072 96.3759 82.0935 96.4824 82.0935H98.1644V83.7756C98.1644 83.8821 98.2508 83.9685 98.3573 83.9685C98.4638 83.9685 98.5502 83.8821 98.5502 83.7756V82.0935H100.232C100.339 82.0935 100.425 82.0072 100.425 81.9007C100.425 81.7942 100.339 81.7078 100.232 81.7078H98.5502V80.0256Z" fill="white"/>
<path d="M107.051 79.5395H108.579V78.6832H109.15V79.5395H110.654V80.01H109.15V80.1489C109.15 81.0129 109.867 81.7689 110.855 82.062L110.585 82.5095C109.805 82.2703 109.181 81.7612 108.872 81.09C108.587 81.8306 107.969 82.4169 107.175 82.6869L106.889 82.2317C107.877 81.9077 108.579 81.0823 108.579 80.1489V80.01H107.051V79.5395ZM107.954 84.2143C107.954 83.4352 108.803 82.9877 110.199 82.9877C111.587 82.9877 112.436 83.4352 112.436 84.2143C112.436 84.9935 111.587 85.4486 110.199 85.4486C108.803 85.4486 107.954 84.9935 107.954 84.2143ZM108.533 84.2143C108.533 84.7003 109.165 84.9935 110.199 84.9935C111.225 84.9935 111.865 84.7003 111.865 84.2143C111.865 83.736 111.225 83.4429 110.199 83.4429C109.165 83.4429 108.533 83.736 108.533 84.2143ZM110.453 81.1286V80.6503H111.834V78.714H112.413V82.8026H111.834V81.1286H110.453ZM118.681 78.714H119.259V83.7206H118.681V81.3755H116.737V80.9049H118.681V80.0795H116.737V79.6089H118.681V78.714ZM114.106 82.7023V79.2077H114.685V82.2163C115.618 82.2163 116.505 82.1546 117.547 81.9695L117.601 82.4555C116.513 82.6483 115.603 82.7023 114.615 82.7023H114.106ZM114.955 85.3097V83.2886H115.526V84.8315H119.437V85.3097H114.955ZM122.634 79.4083H126.407V79.8943H124.802V80.8046C124.802 81.954 125.651 83.1112 126.623 83.5355L126.291 83.9983C125.52 83.6357 124.833 82.8489 124.517 81.9155C124.208 82.9106 123.529 83.7746 122.758 84.1603L122.426 83.7052C123.375 83.2423 124.224 81.9695 124.224 80.8046V79.8943H122.634V79.4083ZM127.348 85.464V78.714H127.926V85.464H127.348ZM134.187 78.714H134.765V83.8517H134.187V83.1343H132.806V82.71H134.187V78.714ZM129.219 81.846C130.468 81.846 132.142 81.8306 133.585 81.6532L133.624 82.0697C133.022 82.17 132.389 82.2317 131.772 82.2626V83.6049H131.194V82.2935C130.515 82.3243 129.867 82.332 129.304 82.332L129.219 81.846ZM129.759 80.1643C129.759 79.4546 130.43 78.9917 131.417 78.9917C132.405 78.9917 133.076 79.4546 133.076 80.1643C133.076 80.8817 132.405 81.3369 131.417 81.3369C130.43 81.3369 129.759 80.8817 129.759 80.1643ZM130.191 85.3097V83.3503H130.769V84.8315H134.935V85.3097H130.191ZM130.306 80.1643C130.306 80.6117 130.769 80.8972 131.417 80.8972C132.073 80.8972 132.52 80.6117 132.52 80.1643C132.52 79.7169 132.073 79.4237 131.417 79.4237C130.769 79.4237 130.306 79.7169 130.306 80.1643ZM136.891 79.0766H141.419V79.5703C141.419 80.1026 141.419 80.7197 141.234 81.5683H142.221V82.0466H136.104V81.5683H140.663C140.856 80.7197 140.856 80.1026 140.856 79.5703V79.5549H136.891V79.0766ZM136.86 85.3792V82.9877H141.45V85.3792H136.86ZM137.423 84.9086H140.887V83.4506H137.423V84.9086Z" fill="white"/>
</g>
<rect x="86.7411" y="97.0428" width="57.5835" height="19.3197" rx="9.65985" fill="#333EB3"/>
<rect x="86.7411" y="97.0428" width="57.5835" height="19.3197" rx="9.65985" stroke="#4353FF" stroke-width="0.482143"/>
<path fill-rule="evenodd" clip-rule="evenodd" d="M98.6463 104.827C98.6463 104.668 98.5168 104.538 98.3571 104.538C98.1973 104.538 98.0678 104.668 98.0678 104.827V106.413H96.4822C96.3224 106.413 96.1929 106.543 96.1929 106.702C96.1929 106.862 96.3224 106.992 96.4822 106.992H98.0678V108.577C98.0678 108.737 98.1973 108.867 98.3571 108.867C98.5168 108.867 98.6463 108.737 98.6463 108.577V106.992H100.232C100.392 106.992 100.521 106.862 100.521 106.702C100.521 106.543 100.392 106.413 100.232 106.413H98.6463V104.827Z" fill="white"/>
<path d="M110.338 105.12H111.834V103.523H112.413V108.576H111.834V105.606H110.338V105.12ZM106.882 107.134C107.869 106.756 108.579 105.807 108.579 104.765V103.917H109.15V104.781C109.15 105.737 109.844 106.625 110.801 106.987L110.492 107.435C109.751 107.141 109.165 106.547 108.88 105.807C108.594 106.625 107.977 107.273 107.183 107.597L106.882 107.134ZM108.085 110.111V108.005H108.664V109.633H112.575V110.111H108.085ZM114.014 103.793H114.585V104.781H116.552V103.793H117.123V106.733H114.014V103.793ZM114.585 106.262H116.552V105.236H114.585V106.262ZM114.685 107.797V107.334H118.951V108.954H115.271V109.718H119.198V110.189H114.7V108.515H118.38V107.797H114.685ZM118.372 107.003V103.516H118.951V104.989H119.954V105.467H118.951V107.003H118.372ZM122.735 104.256H126.129V104.603C126.129 105.143 126.129 106.031 125.936 107.296L125.365 107.249C125.55 106.108 125.566 105.275 125.566 104.735H122.735V104.256ZM122.357 108.291C122.796 108.291 123.29 108.283 123.807 108.275V106.193H124.378V108.26C125.126 108.229 125.89 108.183 126.584 108.098L126.615 108.522C125.211 108.746 123.63 108.777 122.434 108.777L122.357 108.291ZM127.008 110.266V103.516H127.579V106.355H128.682V106.841H127.579V110.266H127.008ZM132.852 105.282H134.225V103.516H134.804V107.535H134.225V105.761H132.852V105.282ZM129.296 107.01C130.283 106.648 131.001 105.737 131.001 104.758V104.495H129.473V104.017H133.076V104.495H131.579V104.758C131.579 105.637 132.258 106.478 133.23 106.817L132.929 107.28C132.173 107.003 131.587 106.432 131.302 105.73C131.016 106.532 130.384 107.165 129.589 107.473L129.296 107.01ZM130.345 109.008C130.345 108.221 131.194 107.751 132.59 107.751C133.978 107.751 134.827 108.221 134.827 109.008C134.827 109.803 133.978 110.258 132.59 110.258C131.194 110.258 130.345 109.803 130.345 109.008ZM130.924 109.008C130.924 109.502 131.556 109.803 132.59 109.803C133.616 109.803 134.256 109.502 134.256 109.008C134.256 108.507 133.616 108.206 132.59 108.206C131.556 108.206 130.924 108.507 130.924 109.008Z" fill="white"/>
<rect x="86.7411" y="121.845" width="41.5724" height="18.9542" rx="9.47711" fill="#333EB3"/>
<rect x="86.7411" y="121.845" width="41.5724" height="18.9542" rx="9.47711" stroke="#4353FF" stroke-width="0.482143"/>
<circle cx="100.709" cy="131.322" r="1.13636" fill="#F8FAFC"/>
<circle opacity="0.7" cx="105.255" cy="131.322" r="1.13636" fill="#F8FAFC"/>
<circle opacity="0.5" cx="109.8" cy="131.322" r="1.13636" fill="#F8FAFC"/>
<circle opacity="0.3" cx="114.345" cy="131.322" r="1.13636" fill="#F8FAFC"/>
<path d="M48.4782 80.1392L51.3066 82.9676L51.3066 82.9676L48.4782 80.1392ZM68.4639 100.125L71.2924 102.953L68.4639 100.125ZM62.5292 106.06L59.7008 103.231C58.9506 103.981 58.5292 104.999 58.5292 106.06C58.5292 107.121 58.9506 108.138 59.7008 108.888L62.5292 106.06ZM68.9368 112.467L71.7653 109.639H71.7653L68.9368 112.467ZM49.3142 132.09L52.1426 129.261H52.1426L49.3142 132.09ZM42.9066 125.682L45.735 122.854C44.1729 121.292 41.6402 121.292 40.0781 122.854L42.9066 125.682ZM16.5142 132.089L19.3426 129.261H19.3426L16.5142 132.089ZM16.5142 112.103L13.6858 109.275H13.6858L16.5142 112.103ZM22.9208 105.697L25.7493 108.525C26.4994 107.775 26.9208 106.757 26.9208 105.697C26.9208 104.636 26.4994 103.618 25.7493 102.868L22.9208 105.697ZM16.9871 99.7628L19.8155 96.9344L19.8155 96.9344L16.9871 99.7628ZM16.9871 80.1401L19.8155 82.9686L16.9871 80.1401ZM36.6097 80.1401L39.4381 77.3117L36.6097 80.1401ZM42.5435 86.0739L39.7151 88.9023C41.2772 90.4644 43.8098 90.4644 45.3719 88.9023L42.5435 86.0739ZM71.2924 77.3108C64.2114 70.2297 52.7308 70.2297 45.6498 77.3108L51.3066 82.9676C55.2635 79.0108 61.6787 79.0108 65.6355 82.9676L71.2924 77.3108ZM71.2924 102.953C78.3734 95.8723 78.3734 84.3918 71.2924 77.3108L65.6355 82.9676C69.5923 86.9244 69.5923 93.3397 65.6355 97.2965L71.2924 102.953ZM65.3576 108.888L71.2924 102.953L65.6355 97.2965L59.7008 103.231L65.3576 108.888ZM59.7008 108.888L66.1084 115.296L71.7653 109.639L65.3576 103.231L59.7008 108.888ZM66.1084 115.296C69.9649 119.152 69.965 125.405 66.1084 129.261L71.7653 134.918C78.746 127.938 78.746 116.62 71.7653 109.639L66.1084 115.296ZM66.1084 129.261C62.2519 133.118 55.9992 133.118 52.1426 129.261L46.4858 134.918C53.4665 141.899 64.7845 141.899 71.7653 134.918L66.1084 129.261ZM52.1426 129.261L45.735 122.854L40.0781 128.511L46.4858 134.918L52.1426 129.261ZM39.3283 134.917L45.735 128.511L40.0781 122.854L33.6715 129.261L39.3283 134.917ZM13.6857 134.917C20.7668 141.998 32.2473 141.998 39.3283 134.917L33.6715 129.261C29.7147 133.217 23.2994 133.217 19.3426 129.261L13.6857 134.917ZM13.6858 109.275C6.60476 116.356 6.60474 127.836 13.6858 134.917L19.3426 129.261C15.3858 125.304 15.3858 118.888 19.3426 114.932L13.6858 109.275ZM20.0924 102.868L13.6858 109.275L19.3426 114.932L25.7493 108.525L20.0924 102.868ZM25.7493 102.868L19.8155 96.9344L14.1586 102.591L20.0924 108.525L25.7493 102.868ZM19.8155 96.9344C15.959 93.0778 15.9589 86.8251 19.8155 82.9686L14.1586 77.3117C7.17789 84.2925 7.17791 95.6105 14.1586 102.591L19.8155 96.9344ZM19.8155 82.9686C23.672 79.112 29.9247 79.112 33.7813 82.9686L39.4381 77.3117C32.4574 70.331 21.1394 70.331 14.1586 77.3117L19.8155 82.9686ZM33.7813 82.9686L39.7151 88.9023L45.3719 83.2455L39.4381 77.3117L33.7813 82.9686ZM45.6498 77.3108L39.7151 83.2455L45.3719 88.9023L51.3066 82.9676L45.6498 77.3108Z" fill="url(#paint0_linear_601_6997)"/>
<g filter="url(#filter0_bd_601_6997)">
<mask id="path-13-inside-1_601_6997" fill="white">
<path fill-rule="evenodd" clip-rule="evenodd" d="M87.7724 51.8467C87.8899 51.365 88.3051 51 88.8009 51H144C150.627 51 156 45.6274 156 39V29C156 22.3726 150.627 17 144 17H16C9.37259 17 4 22.3726 4 29V39C4 45.6274 9.37259 51 16 51H76.927C77.5578 51 78.0329 51.5787 77.8452 52.181C77.3183 53.8714 76.4162 55.4046 75.2324 56.69C74.5407 57.4412 75.0374 59.0001 76.0585 59.0001H78.6535C83.068 59.0001 86.7706 55.9526 87.7724 51.8467Z"/>
</mask>
<path fill-rule="evenodd" clip-rule="evenodd" d="M87.7724 51.8467C87.8899 51.365 88.3051 51 88.8009 51H144C150.627 51 156 45.6274 156 39V29C156 22.3726 150.627 17 144 17H16C9.37259 17 4 22.3726 4 29V39C4 45.6274 9.37259 51 16 51H76.927C77.5578 51 78.0329 51.5787 77.8452 52.181C77.3183 53.8714 76.4162 55.4046 75.2324 56.69C74.5407 57.4412 75.0374 59.0001 76.0585 59.0001H78.6535C83.068 59.0001 86.7706 55.9526 87.7724 51.8467Z" fill="#39403F" fill-opacity="0.5" shape-rendering="crispEdges"/>
<path d="M77.8452 52.181L78.7999 52.4786L77.8452 52.181ZM75.2324 56.69L75.968 57.3675L75.2324 56.69ZM87.7724 51.8467L86.8009 51.6096L87.7724 51.8467ZM88.8009 50H144V52H88.8009V50ZM144 50C150.075 50 155 45.0751 155 39H157C157 46.1797 151.18 52 144 52V50ZM155 39V29H157V39H155ZM155 29C155 22.9249 150.075 18 144 18V16C151.18 16 157 21.8203 157 29H155ZM144 18H16V16H144V18ZM16 18C9.92488 18 5 22.9249 5 29H3C3 21.8203 8.82031 16 16 16V18ZM5 29V39H3V29H5ZM5 39C5 45.0751 9.92488 50 16 50V52C8.82031 52 3 46.1797 3 39H5ZM16 50H76.927V52H16V50ZM78.7999 52.4786C78.2275 54.315 77.2486 55.9769 75.968 57.3675L74.4968 56.0126C75.5838 54.8323 76.4092 53.4278 76.8905 51.8835L78.7999 52.4786ZM76.0585 58.0001H78.6535V60.0001H76.0585V58.0001ZM78.6535 58.0001C82.5963 58.0001 85.9058 55.2781 86.8009 51.6096L88.7439 52.0837C87.6354 56.627 83.5396 60.0001 78.6535 60.0001V58.0001ZM76.927 50C78.1516 50 79.2116 51.1576 78.7999 52.4786L76.8905 51.8835C76.8872 51.8942 76.8844 51.9153 76.8893 51.9399C76.8938 51.9623 76.9026 51.9773 76.909 51.9854C76.9209 52.0005 76.9311 52 76.927 52V50ZM75.968 57.3675C75.9555 57.3811 75.9284 57.4197 75.9167 57.5046C75.9046 57.5919 75.914 57.6997 75.9494 57.8032C75.9853 57.9082 76.034 57.9694 76.0622 57.9942C76.0744 58.0049 76.0787 58.0055 76.0737 58.0035C76.0714 58.0026 76.0682 58.0015 76.0646 58.0008C76.0629 58.0005 76.0614 58.0003 76.0602 58.0002C76.0591 58.0001 76.0585 58.0001 76.0585 58.0001V60.0001C74.9666 60.0001 74.3033 59.1708 74.0569 58.4503C73.8102 57.7287 73.8331 56.7333 74.4968 56.0126L75.968 57.3675ZM88.8009 52C88.8008 52 88.8015 51.9998 88.8011 52C88.8 52.0004 88.7951 52.0025 88.7877 52.0087C88.7714 52.0224 88.7526 52.0483 88.7439 52.0837L86.8009 51.6096C87.0144 50.7349 87.7901 50 88.8009 50V52Z" fill="url(#paint1_linear_601_6997)" mask="url(#path-13-inside-1_601_6997)"/>
</g>
<path d="M17.452 29.431H24.206V30.278C24.206 31.048 24.206 31.884 24.03 32.896H25.24V33.952H16.363V32.896H22.666C22.732 32.588 22.776 32.302 22.798 32.038L17.32 32.258L17.166 31.224L22.864 31.092C22.875 30.883 22.875 30.685 22.875 30.487H17.452V29.431ZM17.331 35.591V34.568H24.272V37.153H18.695V37.78H24.613V38.814H17.342V36.174H22.93V35.591H17.331ZM26.4805 36.702H30.2425V35.195H27.5145V31.895H33.0365V30.784H27.4925V29.706H34.3895V32.951H28.8565V34.106H34.6095V35.195H31.6065V36.702H35.4015V37.813H26.4805V36.702ZM42.9451 29.068H44.3091V32.753H45.7611V33.875H44.3091V38.924H42.9451V29.068ZM36.9171 36.625V29.849H38.2701V32.258H40.3381V29.849H41.6911V36.625H36.9171ZM38.2701 35.536H40.3381V33.325H38.2701V35.536ZM53.0626 29.046H54.4376V32.852H55.8236V33.974H54.4376V38.913H53.0626V29.046ZM46.6496 36.163C48.9596 34.975 50.1916 33.38 50.4446 31.169H47.1886V30.069H51.8196C51.8196 33.017 50.6756 35.547 47.4086 37.197L46.6496 36.163ZM65.2176 30.003C65.2176 33.039 64.3926 35.624 60.6966 37.461L59.9816 36.394C61.6206 35.58 62.6216 34.656 63.2046 33.534L60.2346 33.809L60.0586 32.654L63.6336 32.445C63.7436 32.027 63.8206 31.576 63.8646 31.103H60.5646V30.003H65.2176ZM66.7356 38.913V29.057H68.0996V38.913H66.7356ZM76.9852 29.057H78.3492V38.924H76.9852V36.735H74.9832V35.701H76.9852V29.057ZM70.0002 34.084C71.8262 34.084 74.2462 34.073 76.3472 33.787L76.4242 34.777C75.5662 34.931 74.6752 35.03 73.8062 35.085V38.627H72.4422V35.151C71.6282 35.184 70.8582 35.184 70.1542 35.184L70.0002 34.084ZM70.6712 31.488C70.6712 30.3 71.7162 29.486 73.1792 29.486C74.6312 29.486 75.6762 30.3 75.6762 31.488C75.6762 32.687 74.6312 33.501 73.1792 33.501C71.7162 33.501 70.6712 32.687 70.6712 31.488ZM71.9582 31.488C71.9582 32.115 72.4642 32.467 73.1792 32.467C73.9052 32.467 74.4002 32.115 74.4002 31.488C74.4002 30.872 73.9052 30.498 73.1792 30.498C72.4642 30.498 71.9582 30.872 71.9582 31.488ZM81.2177 29.871H88.0487V30.982H82.5707V33.622H88.1257V34.7H81.2177V29.871ZM80.1727 37.714V36.603H89.0937V37.714H80.1727ZM93.3507 34.964H102.261V36.075H98.4767V38.935H97.1017V36.075H93.3507V34.964ZM93.8127 33.369C95.8367 33.138 96.9367 32.159 97.0797 31.268H94.1537V30.201H97.1017V29.09H98.4767V30.201H101.447V31.268H98.4987C98.6527 32.148 99.7637 33.138 101.766 33.369L101.293 34.436C99.6317 34.238 98.4327 33.556 97.7947 32.643C97.1567 33.556 95.9577 34.238 94.2857 34.436L93.8127 33.369ZM103.732 30.245H105.701V29.134H107.054V30.245H109.023V31.301H107.054V31.367C107.054 32.5 107.78 33.644 109.364 34.117L108.715 35.184C107.615 34.854 106.845 34.183 106.405 33.325C105.965 34.249 105.195 34.986 104.062 35.349L103.402 34.282C104.986 33.787 105.701 32.588 105.701 31.367V31.301H103.732V30.245ZM105.206 38.737V35.756H106.57V37.648H111.927V38.737H105.206ZM108.704 33.05V31.939H110.332V29.068H111.696V36.361H110.332V33.05H108.704ZM113.597 33.556H122.507V34.645H118.734V35.404C120.439 35.536 121.451 36.141 121.451 37.153C121.451 38.286 120.164 38.924 118.03 38.924C115.907 38.924 114.62 38.286 114.62 37.153C114.62 36.13 115.643 35.525 117.37 35.404V34.645H113.597V33.556ZM113.982 32.093C115.83 31.928 116.831 31.257 117.062 30.553H114.411V29.486H121.715V30.553H119.042C119.262 31.257 120.263 31.928 122.122 32.093L121.649 33.16C119.812 32.984 118.569 32.28 118.052 31.323C117.535 32.28 116.292 32.984 114.455 33.16L113.982 32.093ZM115.995 37.153C115.995 37.659 116.688 37.89 118.03 37.89C119.383 37.89 120.076 37.659 120.076 37.153C120.076 36.647 119.383 36.405 118.03 36.405C116.688 36.405 115.995 36.647 115.995 37.153Z" fill="#F8FAFC"/>
<circle cx="128.25" cy="34.25" r="1.25" fill="#F8FAFC"/>
<circle opacity="0.7" cx="133.25" cy="34.25" r="1.25" fill="#F8FAFC"/>
<circle opacity="0.5" cx="138.25" cy="34.25" r="1.25" fill="#F8FAFC"/>
<circle opacity="0.3" cx="143.25" cy="34.25" r="1.25" fill="#F8FAFC"/>
<defs>
<filter id="filter0_bd_601_6997" x="-6" y="7" width="172" height="62" filterUnits="userSpaceOnUse" color-interpolation-filters="sRGB">
<feFlood flood-opacity="0" result="BackgroundImageFix"/>
<feGaussianBlur in="BackgroundImageFix" stdDeviation="5"/>
<feComposite in2="SourceAlpha" operator="in" result="effect1_backgroundBlur_601_6997"/>
<feColorMatrix in="SourceAlpha" type="matrix" values="0 0 0 0 0 0 0 0 0 0 0 0 0 0 0 0 0 0 127 0" result="hardAlpha"/>
<feOffset dy="4"/>
<feGaussianBlur stdDeviation="2"/>
<feComposite in2="hardAlpha" operator="out"/>
<feColorMatrix type="matrix" values="0 0 0 0 0 0 0 0 0 0 0 0 0 0 0 0 0 0 0.25 0"/>
<feBlend mode="normal" in2="effect1_backgroundBlur_601_6997" result="effect2_dropShadow_601_6997"/>
<feBlend mode="normal" in="SourceGraphic" in2="effect2_dropShadow_601_6997" result="shape"/>
</filter>
<linearGradient id="paint0_linear_601_6997" x1="42.6879" y1="76" x2="42.6879" y2="136.228" gradientUnits="userSpaceOnUse">
<stop stop-color="#12D8C0"/>
<stop offset="1" stop-color="#0ED86C"/>
</linearGradient>
<linearGradient id="paint1_linear_601_6997" x1="142" y1="55" x2="38" y2="17" gradientUnits="userSpaceOnUse">
<stop stop-color="#0FD8CC"/>
<stop offset="1" stop-color="#0FD878"/>
</linearGradient>
</defs>
</svg>
