<svg width="161" height="160" viewBox="0 0 161 160" fill="none" xmlns="http://www.w3.org/2000/svg">
<mask id="path-1-inside-1_601_7029" fill="white">
<path fill-rule="evenodd" clip-rule="evenodd" d="M80.8967 31.4001C78.865 29.5006 74.9577 29.5339 72.5 31.5L27.8151 65.276C27.2207 65.7331 26.9731 66.3765 27.0023 67.0002V126C27.0023 127.656 28.3454 129 30.0023 129H124.002C125.659 129 127.002 127.656 127.002 126V66.9995H126.998C127.027 66.376 126.779 65.7329 126.185 65.276L81.1151 31.586C81.0385 31.5287 80.9666 31.4654 80.8967 31.4001Z"/>
</mask>
<path fill-rule="evenodd" clip-rule="evenodd" d="M80.8967 31.4001C78.865 29.5006 74.9577 29.5339 72.5 31.5L27.8151 65.276C27.2207 65.7331 26.9731 66.3765 27.0023 67.0002V126C27.0023 127.656 28.3454 129 30.0023 129H124.002C125.659 129 127.002 127.656 127.002 126V66.9995H126.998C127.027 66.376 126.779 65.7329 126.185 65.276L81.1151 31.586C81.0385 31.5287 80.9666 31.4654 80.8967 31.4001Z" fill="#4353FF" fill-opacity="0.4"/>
<path d="M72.5 31.5L73.103 32.2977L73.114 32.2894L73.1247 32.2809L72.5 31.5ZM80.8967 31.4001L81.5796 30.6696L81.5796 30.6696L80.8967 31.4001ZM27.8151 65.276L27.2121 64.4782L27.2055 64.4832L27.8151 65.276ZM27.0023 67.0002H28.0023V66.9769L28.0012 66.9535L27.0023 67.0002ZM127.002 66.9995H128.002V65.9995H127.002V66.9995ZM126.998 66.9995L125.999 66.9531L125.95 67.9995H126.998V66.9995ZM126.185 65.276L126.795 64.4832L126.784 64.475L126.185 65.276ZM81.1151 31.586L80.5164 32.387L80.5164 32.387L81.1151 31.586ZM73.1247 32.2809C74.1592 31.4532 75.5274 31.0149 76.8689 31.0004C78.2173 30.9858 79.4301 31.3979 80.2138 32.1306L81.5796 30.6696C80.3316 29.5028 78.5749 28.9818 76.8472 29.0005C75.1128 29.0193 73.2985 29.5806 71.8753 30.7191L73.1247 32.2809ZM28.4181 66.0737L73.103 32.2977L71.897 30.7022L27.2121 64.4782L28.4181 66.0737ZM28.0012 66.9535C27.9864 66.6363 28.105 66.3145 28.4246 66.0687L27.2055 64.4832C26.3363 65.1516 25.9599 66.1167 26.0034 67.047L28.0012 66.9535ZM28.0023 126V67.0002H26.0023V126H28.0023ZM30.0023 128C28.8977 128 28.0023 127.104 28.0023 126H26.0023C26.0023 128.209 27.7932 130 30.0023 130V128ZM124.002 128H30.0023V130H124.002V128ZM126.002 126C126.002 127.104 125.107 128 124.002 128V130C126.211 130 128.002 128.209 128.002 126H126.002ZM126.002 66.9995V126H128.002V66.9995H126.002ZM126.998 67.9995H127.002V65.9995H126.998V67.9995ZM125.575 66.0687C125.895 66.3144 126.014 66.6361 125.999 66.9531L127.997 67.0459C128.04 66.116 127.663 65.1514 126.794 64.4832L125.575 66.0687ZM80.5164 32.387L125.586 66.0769L126.784 64.475L81.7138 30.7851L80.5164 32.387ZM80.2138 32.1306C80.2968 32.2082 80.3985 32.2989 80.5164 32.387L81.7138 30.7851C81.6784 30.7586 81.6364 30.7227 81.5796 30.6696L80.2138 32.1306Z" fill="#2E3DE3" mask="url(#path-1-inside-1_601_7029)"/>
<rect x="45.4" y="39.4" width="64.2" height="77.2" rx="2.6" fill="#C1C4E7" stroke="url(#paint0_linear_601_7029)" stroke-width="0.8"/>
<g filter="url(#filter0_bd_601_7029)">
<mask id="path-4-inside-2_601_7029" fill="white">
<path fill-rule="evenodd" clip-rule="evenodd" d="M71.2131 92.4779L30.0606 65.3291C28.7414 64.4588 26.9899 65.4172 27.0001 67.0038L27 126.5C27.0006 126.582 27.0068 126.663 27.0182 126.744C26.8635 127.839 27.7076 129 29.097 129H124.903C124.923 129 124.942 129 124.961 128.999C126.012 129.03 127.001 128.197 127 127.008C127 127.002 127 126.996 127 126.99V67.0001C126.99 65.4135 124.841 64.4561 123.533 65.3434L82.8874 92.9186L81 91.5002C79 89.5002 75 89.5001 72.5 91.4999L71.2131 92.4779Z"/>
</mask>
<path fill-rule="evenodd" clip-rule="evenodd" d="M71.2131 92.4779L30.0606 65.3291C28.7414 64.4588 26.9899 65.4172 27.0001 67.0038L27 126.5C27.0006 126.582 27.0068 126.663 27.0182 126.744C26.8635 127.839 27.7076 129 29.097 129H124.903C124.923 129 124.942 129 124.961 128.999C126.012 129.03 127.001 128.197 127 127.008C127 127.002 127 126.996 127 126.99V67.0001C126.99 65.4135 124.841 64.4561 123.533 65.3434L82.8874 92.9186L81 91.5002C79 89.5002 75 89.5001 72.5 91.4999L71.2131 92.4779Z" fill="#2D3AC4" fill-opacity="0.4" shape-rendering="crispEdges"/>
<path d="M71.2131 92.4779L70.9378 92.8953L71.2335 93.0904L71.5156 92.876L71.2131 92.4779ZM30.0606 65.3291L30.336 64.9117L30.0606 65.3291ZM27.0001 67.0038H27.5001L27.5 67.0006L27.0001 67.0038ZM27 126.5H26.5L26.5001 126.503L27 126.5ZM27.0182 126.744L27.5133 126.813L27.5232 126.743L27.5132 126.673L27.0182 126.744ZM124.961 128.999L124.976 128.5L124.963 128.499L124.949 128.5L124.961 128.999ZM127 127.008L126.5 127.007V127.009L127 127.008ZM127 126.99H126.5L126.5 126.993L127 126.99ZM127 67.0001H127.5L127.5 66.9969L127 67.0001ZM123.533 65.3434L123.814 65.7572V65.7572L123.533 65.3434ZM82.8874 92.9186L82.587 93.3183L82.8726 93.5329L83.1681 93.3324L82.8874 92.9186ZM81 91.5002L80.6465 91.8537L80.6714 91.8787L80.6996 91.8999L81 91.5002ZM72.5 91.4999L72.8026 91.8981L72.8123 91.8904L72.5 91.4999ZM71.4884 92.0606L30.336 64.9117L29.7853 65.7464L70.9378 92.8953L71.4884 92.0606ZM30.336 64.9117C28.6788 63.8185 26.4874 65.0259 26.5001 67.007L27.5 67.0006C27.4924 65.8085 28.8041 65.0991 29.7853 65.7464L30.336 64.9117ZM26.5001 67.0038L26.5 126.5H27.5L27.5001 67.0038H26.5001ZM26.5001 126.503C26.5007 126.608 26.5087 126.712 26.5231 126.814L27.5132 126.673C27.5048 126.614 27.5004 126.555 27.5 126.497L26.5001 126.503ZM29.097 128.5C28.0194 128.5 27.4 127.616 27.5133 126.813L26.5231 126.674C26.3271 128.062 27.3958 129.5 29.097 129.5V128.5ZM124.903 128.5H29.097V129.5H124.903V128.5ZM124.949 128.5C124.934 128.5 124.919 128.5 124.903 128.5V129.5C124.926 129.5 124.95 129.5 124.973 129.499L124.949 128.5ZM124.946 129.499C126.259 129.538 127.501 128.498 127.5 127.008L126.5 127.009C126.501 127.896 125.764 128.523 124.976 128.5L124.946 129.499ZM126.5 126.993C126.5 126.999 126.5 127.003 126.5 127.007L127.5 127.01C127.5 127.001 127.5 126.994 127.5 126.987L126.5 126.993ZM127.5 126.99V67.0001H126.5V126.99H127.5ZM127.5 66.9969C127.493 65.9577 126.788 65.1743 125.964 64.7908C125.142 64.4079 124.084 64.3652 123.252 64.9297L123.814 65.7572C124.29 65.4342 124.961 65.4266 125.542 65.6973C126.122 65.9674 126.496 66.4559 126.5 67.0033L127.5 66.9969ZM123.252 64.9297L82.6067 92.5049L83.1681 93.3324L123.814 65.7572L123.252 64.9297ZM80.6996 91.8999L82.587 93.3183L83.1878 92.5189L81.3004 91.1005L80.6996 91.8999ZM72.8123 91.8904C73.9636 90.9694 75.4749 90.5001 76.9375 90.5001C78.4036 90.5002 79.7631 90.9704 80.6465 91.8537L81.3535 91.1466C80.2369 90.03 78.5964 89.5002 76.9375 89.5001C75.2751 89.5001 73.5364 90.0306 72.1877 91.1095L72.8123 91.8904ZM71.5156 92.876L72.8025 91.898L72.1975 91.1018L70.9106 92.0798L71.5156 92.876Z" fill="#2E3DE3" mask="url(#path-4-inside-2_601_7029)"/>
</g>
<g filter="url(#filter1_bd_601_7029)">
<path d="M72.5 91.4998C75 89.5 79 89.5001 81 91.5L126.207 125.474C127.756 126.64 126.884 129 124.903 129H29.097C27.1162 129 26.2438 126.64 27.7935 125.474L72.5 91.4998Z" fill="#2D3AC4" fill-opacity="0.4" shape-rendering="crispEdges"/>
<path d="M72.6513 91.6989L72.6513 91.6989L72.6562 91.695C73.8568 90.7346 75.425 90.25 76.9375 90.25C78.4518 90.25 79.8815 90.7352 80.8232 91.6768L80.8357 91.6893L80.8498 91.6999L126.056 125.674C126.737 126.186 126.881 126.948 126.644 127.588C126.407 128.229 125.784 128.75 124.903 128.75H29.097C28.2155 128.75 27.593 128.229 27.3558 127.588C27.1193 126.948 27.2635 126.186 27.9438 125.674L27.9448 125.673L72.6513 91.6989Z" stroke="#2E3DE3" stroke-width="0.5" shape-rendering="crispEdges"/>
</g>
<rect opacity="0.12" x="108" y="52" width="31" height="31" rx="15.5" fill="#EA215D"/>
<rect opacity="0.15" x="111" y="55" width="25" height="25" rx="12.5" fill="#EA215D"/>
<g filter="url(#filter2_b_601_7029)">
<rect x="113" y="56.7334" width="20.8" height="20.8" rx="10.4" fill="#EA215D" fill-opacity="0.5"/>
<rect x="113.433" y="57.1667" width="19.9333" height="19.9333" rx="9.96667" stroke="#EA215D" stroke-width="0.866667"/>
</g>
<path d="M124.721 61.3406V72.0587L122.96 72.044V63.2053L120.977 64.189L120.317 62.6914L122.96 61.3406H124.721Z" fill="white"/>
<defs>
<filter id="filter0_bd_601_7029" x="17" y="55" width="120" height="84.0002" filterUnits="userSpaceOnUse" color-interpolation-filters="sRGB">
<feFlood flood-opacity="0" result="BackgroundImageFix"/>
<feGaussianBlur in="BackgroundImageFix" stdDeviation="5"/>
<feComposite in2="SourceAlpha" operator="in" result="effect1_backgroundBlur_601_7029"/>
<feColorMatrix in="SourceAlpha" type="matrix" values="0 0 0 0 0 0 0 0 0 0 0 0 0 0 0 0 0 0 127 0" result="hardAlpha"/>
<feOffset dy="4"/>
<feGaussianBlur stdDeviation="2"/>
<feComposite in2="hardAlpha" operator="out"/>
<feColorMatrix type="matrix" values="0 0 0 0 0 0 0 0 0 0 0 0 0 0 0 0 0 0 0.25 0"/>
<feBlend mode="normal" in2="effect1_backgroundBlur_601_7029" result="effect2_dropShadow_601_7029"/>
<feBlend mode="normal" in="SourceGraphic" in2="effect2_dropShadow_601_7029" result="shape"/>
</filter>
<filter id="filter1_bd_601_7029" x="17" y="80" width="120" height="59" filterUnits="userSpaceOnUse" color-interpolation-filters="sRGB">
<feFlood flood-opacity="0" result="BackgroundImageFix"/>
<feGaussianBlur in="BackgroundImageFix" stdDeviation="5"/>
<feComposite in2="SourceAlpha" operator="in" result="effect1_backgroundBlur_601_7029"/>
<feColorMatrix in="SourceAlpha" type="matrix" values="0 0 0 0 0 0 0 0 0 0 0 0 0 0 0 0 0 0 127 0" result="hardAlpha"/>
<feOffset dy="4"/>
<feGaussianBlur stdDeviation="2"/>
<feComposite in2="hardAlpha" operator="out"/>
<feColorMatrix type="matrix" values="0 0 0 0 0 0 0 0 0 0 0 0 0 0 0 0 0 0 0.25 0"/>
<feBlend mode="normal" in2="effect1_backgroundBlur_601_7029" result="effect2_dropShadow_601_7029"/>
<feBlend mode="normal" in="SourceGraphic" in2="effect2_dropShadow_601_7029" result="shape"/>
</filter>
<filter id="filter2_b_601_7029" x="109" y="52.7334" width="28.7998" height="28.8" filterUnits="userSpaceOnUse" color-interpolation-filters="sRGB">
<feFlood flood-opacity="0" result="BackgroundImageFix"/>
<feGaussianBlur in="BackgroundImageFix" stdDeviation="2"/>
<feComposite in2="SourceAlpha" operator="in" result="effect1_backgroundBlur_601_7029"/>
<feBlend mode="normal" in="SourceGraphic" in2="effect1_backgroundBlur_601_7029" result="shape"/>
</filter>
<linearGradient id="paint0_linear_601_7029" x1="73" y1="39" x2="72.5" y2="69" gradientUnits="userSpaceOnUse">
<stop stop-color="#F8FBFF"/>
<stop offset="1" stop-color="#C5CCD4"/>
</linearGradient>
</defs>
</svg>
