<svg width="161" height="160" viewBox="0 0 161 160" fill="none" xmlns="http://www.w3.org/2000/svg">
<g opacity="0.4">
<rect x="89.0477" y="40.2411" width="57.7221" height="19.3197" rx="9.65985" fill="#4353FF" fill-opacity="0.68"/>
<rect x="89.0477" y="40.2411" width="57.7221" height="19.3197" rx="9.65985" stroke="#4353FF" stroke-width="0.482143"/>
<path fill-rule="evenodd" clip-rule="evenodd" d="M103.024 48.0256C103.024 47.8658 102.895 47.7363 102.735 47.7363C102.575 47.7363 102.446 47.8658 102.446 48.0256V49.6113H100.86C100.7 49.6113 100.57 49.7409 100.57 49.9006C100.57 50.0604 100.7 50.1899 100.86 50.1899H102.446V51.7756C102.446 51.9354 102.575 52.0649 102.735 52.0649C102.895 52.0649 103.024 51.9354 103.024 51.7756V50.1899H104.61C104.769 50.1899 104.899 50.0604 104.899 49.9006C104.899 49.7409 104.769 49.6113 104.61 49.6113H103.024V48.0256Z" fill="white"/>
<path d="M109.25 52.1063H112.012V50.44H109.975V47.2772H114.619V50.44H112.583V52.1063H115.367V52.5846H109.25V52.1063ZM110.538 49.9772H114.056V47.74H110.538V49.9772ZM116.336 47.1692H120.031V47.632H118.48V47.8249C118.48 48.712 119.221 49.4989 120.208 49.8075L119.923 50.2626C119.136 50.008 118.503 49.4603 118.203 48.7583C117.909 49.5143 117.277 50.1006 116.467 50.3783L116.174 49.9232C117.177 49.5992 117.894 48.7583 117.894 47.8249V47.632H116.336V47.1692ZM117.277 53.3715V50.7023H117.84V51.5277H121.034V50.7023H121.605V53.3715H117.277ZM117.84 52.8932H121.034V51.9906H117.84V52.8932ZM121.026 50.3706V46.714H121.605V50.3706H121.026ZM125.952 50.9877C127.387 50.9877 128.305 51.4506 128.305 52.222C128.305 52.9935 127.387 53.4563 125.952 53.4563C124.525 53.4563 123.614 52.9935 123.614 52.222C123.614 51.4506 124.525 50.9877 125.952 50.9877ZM122.935 50.3475V49.8769H125.466V48.5655H126.037V49.8769H129.022V50.3475H122.935ZM123.661 47.5395V47.0612H128.243V47.6397C128.243 48.1875 128.243 48.7275 128.058 49.4217L127.495 49.36C127.672 48.6657 127.672 48.1643 127.672 47.6397V47.5395H123.661ZM124.185 52.222C124.185 52.7003 124.879 53.0012 125.952 53.0012C127.032 53.0012 127.726 52.7003 127.726 52.222C127.726 51.736 127.032 51.4352 125.952 51.4352C124.879 51.4352 124.185 51.736 124.185 52.222ZM130.415 47.4006H135.12V48.0717C135.12 48.9049 135.12 49.8229 134.881 51.1806L134.295 51.1112C134.542 49.8229 134.542 48.8817 134.542 48.0717V47.8789H130.415V47.4006ZM129.767 52.4997V52.0137H132.166V49.5915H132.737V52.0137H135.869V52.4997H129.767Z" fill="white"/>
</g>
<g opacity="0.4">
<rect x="3.24107" y="73.0428" width="42.7221" height="19.3197" rx="9.65985" fill="#4353FF" fill-opacity="0.68"/>
<rect x="3.24107" y="73.0428" width="42.7221" height="19.3197" rx="9.65985" stroke="#4353FF" stroke-width="0.482143"/>
<path fill-rule="evenodd" clip-rule="evenodd" d="M16.2176 80.8274C16.2176 80.6676 16.0881 80.5381 15.9283 80.5381C15.7686 80.5381 15.639 80.6676 15.639 80.8274V82.4131H14.053C13.8932 82.4131 13.7637 82.5426 13.7637 82.7024C13.7637 82.8622 13.8932 82.9917 14.053 82.9917H15.639V84.5774C15.639 84.7371 15.7686 84.8667 15.9283 84.8667C16.0881 84.8667 16.2176 84.7371 16.2176 84.5774V82.9917H17.803C17.9627 82.9917 18.0922 82.8622 18.0922 82.7024C18.0922 82.5426 17.9627 82.4131 17.803 82.4131H16.2176V80.8274Z" fill="white"/>
<path d="M28.4036 79.5158H28.9822V82.9641H28.4036V82.2544H26.6062V81.7915H28.4036V80.9661H26.7065C26.2976 82.0306 25.2485 82.7558 23.7596 83.1184L23.5591 82.6478C25.2022 82.2544 26.1665 81.4289 26.2745 80.3335H23.8985V79.8552H26.9071C26.9071 80.0866 26.8839 80.3026 26.8453 80.5109H28.4036V79.5158ZM24.6545 83.7509V83.2804H28.9822V84.9158H25.2408V85.7335H29.2136V86.1964H24.6699V84.4684H28.4036V83.7509H24.6545ZM30.5908 80.2564H33.9851V80.6035C33.9851 81.1435 33.9851 82.0306 33.7922 83.2958L33.2214 83.2495C33.4065 82.1078 33.4219 81.2746 33.4219 80.7346H30.5908V80.2564ZM30.2128 84.2909C30.6525 84.2909 31.1462 84.2832 31.6631 84.2755V82.1926H32.2339V84.2601C32.9822 84.2292 33.7459 84.1829 34.4402 84.0981L34.4711 84.5224C33.0671 84.7461 31.4857 84.7769 30.2899 84.7769L30.2128 84.2909ZM34.8645 86.2658V79.5158H35.4354V82.3546H36.5385V82.8406H35.4354V86.2658H34.8645Z" fill="white"/>
</g>
<g opacity="0.4">
<rect x="116.649" y="73.0428" width="41.7221" height="19.3197" rx="9.65985" fill="#4353FF" fill-opacity="0.68"/>
<rect x="116.649" y="73.0428" width="41.7221" height="19.3197" rx="9.65985" stroke="#4353FF" stroke-width="0.482143"/>
<path fill-rule="evenodd" clip-rule="evenodd" d="M129.626 80.8274C129.626 80.6676 129.496 80.5381 129.337 80.5381C129.177 80.5381 129.047 80.6676 129.047 80.8274V82.4131H127.461C127.301 82.4131 127.172 82.5426 127.172 82.7024C127.172 82.8622 127.301 82.9917 127.461 82.9917H129.047V84.5774C129.047 84.7371 129.177 84.8667 129.337 84.8667C129.496 84.8667 129.626 84.7371 129.626 84.5774V82.9917H131.211C131.371 82.9917 131.5 82.8622 131.5 82.7024C131.5 82.5426 131.371 82.4131 131.211 82.4131H129.626V80.8274Z" fill="white"/>
<path d="M140.789 79.5235H141.367V84.4606H140.789V79.5235ZM135.929 83.0258C136.932 82.6324 137.626 81.6449 137.626 80.5804V79.8861H138.204V80.5804C138.204 81.6064 138.906 82.5321 139.902 82.9024L139.593 83.3652C138.822 83.0644 138.22 82.4395 137.927 81.6604C137.641 82.4935 137.032 83.1646 136.237 83.4886L135.929 83.0258ZM137.055 86.1115V84.0132H137.634V85.6332H141.583V86.1115H137.055ZM142.868 80.3412H144.395V79.4849H144.966V80.3412H146.47V80.8118H144.966V80.9506C144.966 81.8146 145.684 82.5706 146.671 82.8638L146.401 83.3112C145.622 83.0721 144.997 82.5629 144.688 81.8918C144.403 82.6324 143.786 83.2186 142.991 83.4886L142.706 83.0335C143.693 82.7095 144.395 81.8841 144.395 80.9506V80.8118H142.868V80.3412ZM143.77 85.0161C143.77 84.2369 144.619 83.7895 146.015 83.7895C147.404 83.7895 148.252 84.2369 148.252 85.0161C148.252 85.7952 147.404 86.2504 146.015 86.2504C144.619 86.2504 143.77 85.7952 143.77 85.0161ZM144.349 85.0161C144.349 85.5021 144.982 85.7952 146.015 85.7952C147.041 85.7952 147.682 85.5021 147.682 85.0161C147.682 84.5378 147.041 84.2446 146.015 84.2446C144.982 84.2446 144.349 84.5378 144.349 85.0161ZM146.27 81.9304V81.4521H147.651V79.5158H148.229V83.6044H147.651V81.9304H146.27Z" fill="white"/>
</g>
<rect x="15.3372" y="35.3372" width="69.1797" height="26.4418" rx="13.2209" fill="#4353FF" fill-opacity="0.68"/>
<rect x="15.3372" y="35.3372" width="69.1797" height="26.4418" rx="13.2209" stroke="#4353FF" stroke-width="0.674475"/>
<path fill-rule="evenodd" clip-rule="evenodd" d="M33.4885 45.9354C33.4885 45.7119 33.3073 45.5308 33.0838 45.5308C32.8603 45.5308 32.6791 45.7119 32.6791 45.9354V48.1537H30.4603C30.2368 48.1537 30.0557 48.3349 30.0557 48.5584C30.0557 48.7819 30.2368 48.9631 30.4603 48.9631H32.6791V51.1814C32.6791 51.4049 32.8603 51.586 33.0838 51.586C33.3073 51.586 33.4885 51.4049 33.4885 51.1814V48.9631H35.7063C35.9298 48.9631 36.1109 48.7819 36.1109 48.5584C36.1109 48.3349 35.9298 48.1537 35.7063 48.1537H33.4885V45.9354Z" fill="white"/>
<path d="M43.8891 44.3745H49.1661V45.0544H46.9215V46.3278C46.9215 47.9357 48.1086 49.5545 49.4683 50.148L49.0043 50.7955C47.9251 50.2883 46.9647 49.1875 46.5222 47.8818C46.0905 49.2739 45.1409 50.4825 44.0617 51.0221L43.5977 50.3854C44.925 49.7379 46.1121 47.9573 46.1121 46.3278V45.0544H43.8891V44.3745ZM50.4827 52.8459V43.4032H51.2921V52.8459H50.4827ZM60.0497 43.4032H60.8591V50.5904H60.0497V49.5868H58.118V48.9933H60.0497V43.4032ZM53.0999 47.7846C54.8482 47.7846 57.1899 47.7631 59.208 47.5148L59.2619 48.0976C58.4202 48.2379 57.5353 48.3242 56.6719 48.3674V50.2451H55.8626V48.4105C54.9129 48.4537 54.0064 48.4645 53.2186 48.4645L53.0999 47.7846ZM53.8553 45.4321C53.8553 44.4392 54.7942 43.7917 56.1755 43.7917C57.5569 43.7917 58.4957 44.4392 58.4957 45.4321C58.4957 46.4357 57.5569 47.0724 56.1755 47.0724C54.7942 47.0724 53.8553 46.4357 53.8553 45.4321ZM54.4597 52.6301V49.889H55.269V51.961H61.0965V52.6301H54.4597ZM54.6215 45.4321C54.6215 46.058 55.269 46.4573 56.1755 46.4573C57.0928 46.4573 57.7187 46.058 57.7187 45.4321C57.7187 44.8062 57.0928 44.3961 56.1755 44.3961C55.269 44.3961 54.6215 44.8062 54.6215 45.4321ZM63.8324 43.9105H70.1671V44.6011C70.1671 45.3457 70.1671 46.2091 69.9081 47.3961H71.2894V48.0652H62.7317V47.3961H69.1095C69.3793 46.2091 69.3793 45.3457 69.3793 44.6011V44.5795H63.8324V43.9105ZM63.7893 52.7272V49.3818H70.2103V52.7272H63.7893ZM64.577 52.0689H69.4225V50.0293H64.577V52.0689Z" fill="white"/>
<rect x="50.3546" y="68.4718" width="61.8936" height="27.8472" rx="13.9236" fill="#4353FF" fill-opacity="0.68"/>
<rect x="50.3546" y="68.4718" width="61.8936" height="27.8472" rx="13.9236" stroke="#4353FF" stroke-width="0.711221"/>
<path fill-rule="evenodd" clip-rule="evenodd" d="M69.4939 79.6294C69.4939 79.3937 69.3028 79.2026 69.0672 79.2026C68.8315 79.2026 68.6404 79.3937 68.6404 79.6294V81.9685H66.3008C66.0651 81.9685 65.874 82.1596 65.874 82.3952C65.874 82.6309 66.0651 82.822 66.3008 82.822H68.6404V85.1611C68.6404 85.3968 68.8315 85.5878 69.0672 85.5878C69.3028 85.5878 69.4939 85.3968 69.4939 85.1611V82.822H71.8325C72.0682 82.822 72.2592 82.6309 72.2592 82.3952C72.2592 82.1596 72.0682 81.9685 71.8325 81.9685H69.4939V79.6294Z" fill="white"/>
<path d="M83.1406 83.5734C85.2572 83.5734 86.6113 84.2562 86.6113 85.3941C86.6113 86.5321 85.2572 87.2148 83.1406 87.2148C81.0354 87.2148 79.6926 86.5321 79.6926 85.3941C79.6926 84.2562 81.0354 83.5734 83.1406 83.5734ZM78.6912 82.6289V81.9347H82.4237V80.0002H83.2657V81.9347H87.6696V82.6289H78.6912ZM79.7608 78.4867V77.7812H86.5203V78.6347C86.5203 79.4426 86.5203 80.2392 86.2472 81.2633L85.4165 81.1723C85.6782 80.1481 85.6782 79.4085 85.6782 78.6347V78.4867H79.7608ZM80.5347 85.3941C80.5347 86.0996 81.5588 86.5434 83.1406 86.5434C84.7337 86.5434 85.7579 86.0996 85.7579 85.3941C85.7579 84.6772 84.7337 84.2334 83.1406 84.2334C81.5588 84.2334 80.5347 84.6772 80.5347 85.3941ZM89.0753 78.2933H94.6399V79.0102H92.2729V80.353C92.2729 82.0485 93.5247 83.7555 94.9585 84.3813L94.4692 85.0641C93.3312 84.5293 92.3184 83.3686 91.8519 81.9916C91.3967 83.4596 90.3953 84.7341 89.2573 85.3031L88.768 84.6317C90.1677 83.9489 91.4195 82.0713 91.4195 80.353V79.0102H89.0753V78.2933ZM96.0282 87.2262V77.2691H96.8816V87.2262H96.0282Z" fill="white"/>
<rect x="23.3493" y="103.025" width="63.1847" height="27.7292" rx="13.8646" fill="#4353FF" fill-opacity="0.68"/>
<rect x="23.3493" y="103.025" width="63.1847" height="27.7292" rx="13.8646" stroke="#4353FF" stroke-width="0.700527"/>
<path fill-rule="evenodd" clip-rule="evenodd" d="M43.6553 114.165C43.6553 113.933 43.4671 113.745 43.235 113.745C43.0028 113.745 42.8146 113.933 42.8146 114.165V116.469H40.5102C40.278 116.469 40.0898 116.657 40.0898 116.889C40.0898 117.121 40.278 117.31 40.5102 117.31H42.8146V119.613C42.8146 119.846 43.0028 120.034 43.235 120.034C43.4671 120.034 43.6553 119.846 43.6553 119.613V117.31H45.9587C46.1908 117.31 46.379 117.121 46.379 116.889C46.379 116.657 46.1908 116.469 45.9587 116.469H43.6553V114.165Z" fill="white"/>
<path d="M52.9591 113.1H55.1783V111.855H56.0078V113.1H58.1934V113.783H56.0078V113.985C56.0078 115.24 57.0501 116.339 58.4848 116.765L58.0925 117.415C56.9605 117.067 56.0526 116.328 55.6043 115.352C55.1895 116.428 54.2929 117.28 53.1384 117.673L52.7237 117.011C54.1584 116.541 55.1783 115.341 55.1783 113.985V113.783H52.9591V113.1ZM54.2704 119.892C54.2704 118.76 55.5034 118.11 57.5321 118.11C59.5496 118.11 60.7825 118.76 60.7825 119.892C60.7825 121.024 59.5496 121.685 57.5321 121.685C55.5034 121.685 54.2704 121.024 54.2704 119.892ZM55.1111 119.892C55.1111 120.598 56.0302 121.024 57.5321 121.024C59.0228 121.024 59.9531 120.598 59.9531 119.892C59.9531 119.197 59.0228 118.771 57.5321 118.771C56.0302 118.771 55.1111 119.197 55.1111 119.892ZM57.902 115.408V114.714H59.9083V111.9H60.7489V117.841H59.9083V115.408H57.902ZM69.856 111.9H70.6967V119.175H69.856V115.767H67.0315V115.083H69.856V113.884H67.0315V113.2H69.856V111.9ZM63.2094 117.695V112.618H64.0501V116.989C65.4063 116.989 66.6953 116.899 68.2084 116.63L68.2869 117.336C66.7065 117.617 65.3839 117.695 63.9492 117.695H63.2094ZM64.4424 121.483V118.547H65.2718V120.789H70.9545V121.483H64.4424Z" fill="white"/>
<g opacity="0.4">
<rect x="91.4452" y="107.241" width="43.7221" height="19.3197" rx="9.65985" fill="#4353FF" fill-opacity="0.68"/>
<rect x="91.4452" y="107.241" width="43.7221" height="19.3197" rx="9.65985" stroke="#4353FF" stroke-width="0.482143"/>
<path fill-rule="evenodd" clip-rule="evenodd" d="M105.422 115.026C105.422 114.866 105.292 114.736 105.132 114.736C104.973 114.736 104.843 114.866 104.843 115.026V116.611H103.257C103.097 116.611 102.968 116.741 102.968 116.901C102.968 117.06 103.097 117.19 103.257 117.19H104.843V118.776C104.843 118.935 104.973 119.065 105.132 119.065C105.292 119.065 105.422 118.935 105.422 118.776V117.19H107.007C107.167 117.19 107.296 117.06 107.296 116.901C107.296 116.741 107.167 116.611 107.007 116.611H105.422V115.026Z" fill="white"/>
<path d="M111.948 113.992H112.519V114.979H114.486V113.992H115.057V116.931H111.948V113.992ZM112.519 116.46H114.486V115.434H112.519V116.46ZM112.619 117.995V117.533H116.885V119.153H113.206V119.916H117.132V120.387H112.635V118.713H116.315V117.995H112.619ZM116.307 117.201V113.714H116.885V115.187H117.888V115.666H116.885V117.201H116.307ZM118.486 119.153H120.207V117.517H119.049V117.047H120.091V114.817H119.034V114.347H124.025V114.817H122.961V117.047H124.017V117.517H122.853V119.153H124.604V119.631H118.486V119.153ZM120.677 117.047H122.39V114.817H120.677V117.047ZM120.785 119.153H122.282V117.517H120.785V119.153Z" fill="white"/>
</g>
<ellipse opacity="0.2" cx="78.3267" cy="125.185" rx="13.3267" ry="13.1853" fill="#EA215D"/>
<ellipse opacity="0.6" cx="78.3271" cy="125.185" rx="8.29778" ry="8.20974" fill="#EA215D"/>
<mask id="path-24-inside-1_601_6979" fill="white">
<path fill-rule="evenodd" clip-rule="evenodd" d="M93.5566 134.373C93.9869 134.26 94.0653 133.689 93.6815 133.464L79.363 125.061C78.9844 124.839 78.5219 125.171 78.6172 125.596L82.4813 142.84C82.4814 142.84 82.4817 142.84 82.4819 142.84C82.4819 142.84 82.482 142.84 82.482 142.84L86.7939 136.283C86.8615 136.18 86.9651 136.105 87.0849 136.074L93.5566 134.373Z"/>
</mask>
<path fill-rule="evenodd" clip-rule="evenodd" d="M93.5566 134.373C93.9869 134.26 94.0653 133.689 93.6815 133.464L79.363 125.061C78.9844 124.839 78.5219 125.171 78.6172 125.596L82.4813 142.84C82.4814 142.84 82.4817 142.84 82.4819 142.84C82.4819 142.84 82.482 142.84 82.482 142.84L86.7939 136.283C86.8615 136.18 86.9651 136.105 87.0849 136.074L93.5566 134.373Z" fill="#F1F5F9"/>
<path d="M86.7939 136.283L86.3724 136.01L86.7939 136.283ZM87.0849 136.074L87.2153 136.555L87.0849 136.074ZM82.482 142.84L82.9034 143.112L82.482 142.84ZM82.4813 142.84L82.972 142.733L82.4813 142.84ZM93.6815 133.464L93.4263 133.892L93.6815 133.464ZM93.5566 134.373L93.4263 133.892L93.5566 134.373ZM79.363 125.061L79.1078 125.49L79.363 125.061ZM79.1078 125.49L93.4263 133.892L93.9367 133.036L79.6182 124.633L79.1078 125.49ZM82.972 142.733L79.1078 125.49L78.1265 125.702L81.9907 142.946L82.972 142.733ZM82.9034 143.112L87.2153 136.555L86.3724 136.01L82.0605 142.567L82.9034 143.112ZM87.2153 136.555L93.687 134.854L93.4263 133.892L86.9546 135.593L87.2153 136.555ZM87.2153 136.555L86.9546 135.593C86.715 135.656 86.5076 135.804 86.3724 136.01L87.2153 136.555ZM82.7774 143.243C82.8272 143.208 82.8699 143.163 82.9034 143.112L82.0605 142.567C82.094 142.516 82.1367 142.472 82.1864 142.436L82.7774 143.243ZM81.9907 142.946C82.0692 143.296 82.4844 143.453 82.7774 143.243L82.1864 142.436C82.479 142.227 82.8936 142.383 82.972 142.733L81.9907 142.946ZM93.4263 133.892L93.4263 133.892L93.687 134.854C94.5475 134.628 94.7043 133.486 93.9367 133.036L93.4263 133.892ZM79.6182 124.633C78.8609 124.189 77.9359 124.852 78.1265 125.702L79.1078 125.49L79.1078 125.49L79.6182 124.633Z" fill="#94A3B8" mask="url(#path-24-inside-1_601_6979)"/>
</svg>
