<svg width="360" height="640" viewBox="0 0 360 640" fill="none" xmlns="http://www.w3.org/2000/svg">
<g clip-path="url(#clip0_10_8891)">
<rect width="360" height="640" fill="#101013"/>
<rect opacity="0.05" x="-0.5" y="48" width="360" height="452" fill="#F8FAFC"/>
<rect opacity="0.05" x="-0.5" y="48" width="360" height="452" fill="#F8FAFC"/>
<rect x="149" y="114" width="60" height="60" rx="4.44444" fill="#101013"/>
<path opacity="0.2" fill-rule="evenodd" clip-rule="evenodd" d="M180.18 146.763C180.354 146.666 180.518 146.543 180.667 146.394L183.743 143.318C183.746 143.315 183.748 143.313 183.751 143.31L194.507 132.554C195.375 131.686 195.375 130.279 194.507 129.412L191.43 126.335C190.563 125.467 189.155 125.467 188.288 126.335L179.095 135.528L169.903 126.335C169.035 125.467 167.628 125.467 166.76 126.335L163.684 129.411C162.816 130.279 162.816 131.686 163.684 132.554L174.433 143.304C174.438 143.309 174.443 143.313 174.447 143.318L177.524 146.394C178.243 147.114 179.334 147.237 180.18 146.763Z" fill="#4353FF"/>
<path opacity="0.35" fill-rule="evenodd" clip-rule="evenodd" d="M180.186 152.094C180.358 151.997 180.52 151.875 180.667 151.728L183.743 148.652C183.746 148.649 183.748 148.647 183.751 148.644L194.507 137.888C195.375 137.02 195.375 135.613 194.507 134.746L191.43 131.669C190.563 130.801 189.155 130.801 188.288 131.669L179.095 140.862L169.903 131.669C169.035 130.801 167.628 130.801 166.76 131.669L163.684 134.745C162.816 135.613 162.816 137.02 163.684 137.888L174.433 148.638C174.438 148.643 174.443 148.647 174.447 148.652L177.524 151.728C178.245 152.45 179.339 152.572 180.186 152.094Z" fill="#4353FF"/>
<path opacity="0.65" fill-rule="evenodd" clip-rule="evenodd" d="M180.162 157.346C180.343 157.247 180.513 157.121 180.667 156.967L183.743 153.891C183.746 153.888 183.748 153.886 183.751 153.883L194.507 143.127C195.375 142.259 195.375 140.852 194.507 139.984L191.43 136.908C190.563 136.04 189.155 136.04 188.288 136.908L179.095 146.1L169.903 136.908C169.035 136.04 167.628 136.04 166.76 136.908L163.684 139.984C162.816 140.852 162.816 142.259 163.684 143.127L174.433 153.877C174.438 153.881 174.443 153.886 174.447 153.891L177.524 156.967C178.238 157.682 179.318 157.808 180.162 157.346Z" fill="#4353FF"/>
<g filter="url(#filter0_d_10_8891)">
<path fill-rule="evenodd" clip-rule="evenodd" d="M180.18 162.669C180.354 162.571 180.518 162.449 180.667 162.3L183.743 159.224C183.746 159.221 183.748 159.219 183.751 159.216L194.507 148.46C195.375 147.592 195.375 146.185 194.507 145.317L191.43 142.241C190.563 141.373 189.155 141.373 188.288 142.241L179.095 151.433L169.903 142.241C169.035 141.373 167.628 141.373 166.76 142.241L163.684 145.317C162.816 146.185 162.816 147.592 163.684 148.46L174.433 159.21C174.438 159.214 174.443 159.219 174.447 159.224L177.524 162.3C178.243 163.02 179.334 163.143 180.18 162.669Z" fill="#4353FF"/>
</g>
<rect opacity="0.6" x="19.5" y="340" width="320" height="100" rx="10" fill="#101013"/>
<path d="M145.353 570.446C148.845 570.446 151.077 571.58 151.077 573.488C151.077 575.378 148.845 576.512 145.353 576.512C141.897 576.512 139.665 575.378 139.665 573.488C139.665 571.58 141.897 570.446 145.353 570.446ZM138.189 569.384V567.602H143.625V564.776H145.857V567.602H152.715V569.384H138.189ZM139.827 562.886V561.122H150.969V562.436C150.969 563.714 150.969 565.082 150.537 566.756L148.341 566.522C148.701 565.064 148.755 563.984 148.755 562.886H139.827ZM141.879 573.488C141.879 574.37 143.157 574.838 145.353 574.838C147.585 574.838 148.863 574.37 148.863 573.488C148.863 572.588 147.585 572.12 145.353 572.12C143.157 572.12 141.879 572.588 141.879 573.488ZM154.589 561.932H163.625V563.768H160.241V564.794C160.241 567.422 161.627 570.194 164.273 571.31L163.049 573.074C161.195 572.264 159.881 570.644 159.161 568.7C158.441 570.824 157.109 572.606 155.219 573.47L153.959 571.706C156.605 570.5 157.991 567.53 157.991 564.794V563.768H154.589V561.932ZM165.191 576.512V560.384H167.423V576.512H165.191ZM171.746 561.698H182.924V563.516H173.96V567.836H183.05V569.6H171.746V561.698ZM170.036 574.532V572.714H184.634V574.532H170.036ZM185.968 568.394H192.142V567.386H187.786V563.192H196.57V562.31H187.75V560.618H198.766V564.776H189.964V565.712H199.09V567.386H194.374V568.394H200.566V570.176H185.968V568.394ZM187.804 576.332V570.77H190V571.85H196.642V570.77H198.838V576.332H187.804ZM190 574.604H196.642V573.506H190V574.604ZM201.882 568.628H216.462V570.392H201.882V568.628ZM203.34 564.164C203.34 562.13 205.662 560.852 209.172 560.852C212.682 560.852 215.004 562.13 215.004 564.164C215.004 566.234 212.682 567.494 209.172 567.494C205.662 567.494 203.34 566.234 203.34 564.164ZM203.664 576.224V571.526H205.878V574.442H214.824V576.224H203.664ZM205.644 564.164C205.644 565.19 206.958 565.712 209.172 565.712C211.386 565.712 212.7 565.19 212.7 564.164C212.7 563.156 211.386 562.634 209.172 562.634C206.958 562.634 205.644 563.156 205.644 564.164ZM89.1468 588.348H91.3968V604.53H89.1468V588.348ZM78.4908 595.242C78.4908 591.714 80.2908 589.5 82.7388 589.5C85.1688 589.5 86.9508 591.714 86.9508 595.242C86.9508 598.788 85.1688 601.002 82.7388 601.002C80.2908 601.002 78.4908 598.788 78.4908 595.242ZM80.6508 595.242C80.6508 597.654 81.4968 598.986 82.7388 598.986C83.9628 598.986 84.8088 597.654 84.8088 595.242C84.8088 592.83 83.9628 591.516 82.7388 591.516C81.4968 591.516 80.6508 592.83 80.6508 595.242ZM94.5672 589.446H101.839V594.576H96.7992V596.376C99.3192 596.358 101.011 596.286 102.955 595.98L103.117 597.744C100.921 598.122 98.9772 598.158 95.8992 598.158H94.6032V592.884H99.6432V591.21H94.5672V589.446ZM96.7452 604.206V599.31H98.9772V602.424H107.851V604.206H96.7452ZM102.649 594.144V592.272H105.205V588.384H107.455V600.246H105.205V594.144H102.649ZM125.432 588.366H127.664V604.494H125.432V588.366ZM114.308 599.976C118.448 598.014 120.248 595.422 120.59 591.822H115.136V590.04H122.876C122.876 594.954 121.166 598.986 115.46 601.74L114.308 599.976ZM132.059 588.654H134.273V592.434H143.165V594.216H132.059V588.654ZM130.223 597.42V595.638H144.785V597.42H130.223ZM131.861 601.47C131.861 599.58 133.967 598.5 137.441 598.5C140.933 598.5 143.039 599.58 143.039 601.47C143.039 603.378 140.933 604.476 137.441 604.476C133.967 604.476 131.861 603.378 131.861 601.47ZM134.111 601.47C134.111 602.334 135.263 602.766 137.441 602.766C139.655 602.766 140.789 602.334 140.789 601.47C140.789 600.606 139.655 600.192 137.441 600.192C135.263 600.192 134.111 600.606 134.111 601.47ZM153.409 588.618C157.081 588.618 159.241 589.572 159.241 591.372C159.241 593.154 157.081 594.126 153.409 594.126C149.755 594.126 147.577 593.154 147.577 591.372C147.577 589.572 149.755 588.618 153.409 588.618ZM146.119 596.682V594.9H160.699V596.682H146.119ZM147.793 599.274V597.618H158.917V601.722H150.007V602.712H159.349V604.386H147.829V600.156H156.721V599.274H147.793ZM149.899 591.372C149.899 592.146 151.051 592.488 153.409 592.488C155.767 592.488 156.919 592.146 156.919 591.372C156.919 590.616 155.767 590.238 153.409 590.238C151.051 590.238 149.899 590.616 149.899 591.372ZM178.1 588.366H180.206V604.494H178.1V588.366ZM166.076 599.832C168.416 598.356 169.298 595.458 169.298 592.686V591.822H166.652V590.022H173.87V591.822H171.458V592.686C171.458 595.386 172.286 598.122 174.608 599.472L173.312 601.074C171.89 600.228 170.936 598.788 170.396 597.06C169.838 598.95 168.884 600.552 167.408 601.47L166.076 599.832ZM172.718 595.728V593.91H174.842V588.654H176.912V603.756H174.842V595.728H172.718ZM189.532 598.446C193.024 598.446 195.256 599.58 195.256 601.488C195.256 603.378 193.024 604.512 189.532 604.512C186.076 604.512 183.844 603.378 183.844 601.488C183.844 599.58 186.076 598.446 189.532 598.446ZM182.368 597.384V595.602H187.804V592.776H190.036V595.602H196.894V597.384H182.368ZM184.006 590.886V589.122H195.148V590.436C195.148 591.714 195.148 593.082 194.716 594.756L192.52 594.522C192.88 593.064 192.934 591.984 192.934 590.886H184.006ZM186.058 601.488C186.058 602.37 187.336 602.838 189.532 602.838C191.764 602.838 193.042 602.37 193.042 601.488C193.042 600.588 191.764 600.12 189.532 600.12C187.336 600.12 186.058 600.588 186.058 601.488ZM208.669 588.384H210.901V594.702H213.259V596.556H210.901V604.512H208.669V588.384ZM198.193 592.56V590.778H201.793V588.636H204.043V590.778H207.607V592.56H198.193ZM198.859 597.348C198.859 595.098 200.587 593.514 202.927 593.514C205.267 593.514 207.013 595.098 207.013 597.348C207.013 599.58 205.267 601.164 202.927 601.164C200.587 601.164 198.859 599.58 198.859 597.348ZM201.001 597.348C201.001 598.59 201.793 599.346 202.927 599.346C204.061 599.346 204.871 598.59 204.871 597.348C204.871 596.088 204.061 595.314 202.927 595.314C201.793 595.314 201.001 596.088 201.001 597.348ZM215.691 589.752H227.355V591.318C227.355 593.316 227.355 595.584 226.743 599.004L224.493 598.77C225.105 595.692 225.123 593.424 225.123 591.552H215.691V589.752ZM214.215 602.532V600.696H219.417V595.152H221.649V600.696H228.795V602.532H214.215ZM238.15 598.194H240.31V598.752C240.31 600.048 240.85 601.398 242.146 602.298C243.478 601.344 244.036 599.94 244.036 598.752V598.194H246.232V598.752C246.232 600.426 247.15 601.992 249.256 602.64L248.176 604.278C246.646 603.756 245.656 602.766 245.098 601.524C244.576 602.766 243.64 603.846 242.182 604.44C240.706 603.882 239.77 602.838 239.248 601.578C238.672 602.784 237.682 603.756 236.224 604.278L235.126 602.64C237.232 601.92 238.15 600.318 238.15 598.752V598.194ZM234.73 593.082C234.73 590.814 236.602 589.212 239.104 589.212C241.606 589.212 243.478 590.814 243.478 593.082C243.478 595.314 241.606 596.916 239.104 596.916C236.602 596.916 234.73 595.314 234.73 593.082ZM236.908 593.082C236.908 594.324 237.844 595.08 239.104 595.08C240.364 595.08 241.3 594.324 241.3 593.082C241.3 591.822 240.364 591.066 239.104 591.066C237.844 591.066 236.908 591.822 236.908 593.082ZM245.62 597.51V588.384H247.888V597.51H245.62ZM254.802 589.5C256.962 589.5 258.6 591.282 258.906 594.216H261.696V588.348H263.91V604.53H261.696V595.998H258.924C258.708 599.094 257.034 601.002 254.802 601.002C252.408 601.002 250.662 598.788 250.662 595.242C250.662 591.714 252.408 589.5 254.802 589.5ZM252.786 595.242C252.786 597.654 253.596 598.986 254.802 598.986C256.026 598.986 256.836 597.654 256.836 595.242C256.836 592.83 256.026 591.516 254.802 591.516C253.596 591.516 252.786 592.83 252.786 595.242ZM266.361 600.786H269.601V596.808C268.377 596.052 267.621 594.9 267.621 593.478C267.621 590.868 270.177 589.176 273.633 589.176C277.107 589.176 279.645 590.868 279.645 593.478C279.645 594.882 278.907 596.034 277.701 596.79V600.786H280.959V602.604H266.361V600.786ZM269.835 593.478C269.835 595.098 271.365 596.052 273.633 596.052C275.919 596.052 277.449 595.098 277.449 593.478C277.449 591.858 275.919 590.904 273.633 590.904C271.365 590.904 269.835 591.858 269.835 593.478ZM271.833 600.786H275.469V597.618C274.893 597.744 274.281 597.798 273.633 597.798C273.003 597.798 272.391 597.744 271.833 597.636V600.786Z" fill="#CBD5E1"/>
<path d="M88.2526 224.928C92.9086 224.928 95.8846 226.44 95.8846 228.984C95.8846 231.504 92.9086 233.016 88.2526 233.016C83.6446 233.016 80.6686 231.504 80.6686 228.984C80.6686 226.44 83.6446 224.928 88.2526 224.928ZM78.7006 223.512V221.136H85.9486V217.368H88.9246V221.136H98.0686V223.512H78.7006ZM80.8846 214.848V212.496H95.7406V214.248C95.7406 215.952 95.7406 217.776 95.1646 220.008L92.2366 219.696C92.7166 217.752 92.7886 216.312 92.7886 214.848H80.8846ZM83.6206 228.984C83.6206 230.16 85.3246 230.784 88.2526 230.784C91.2286 230.784 92.9326 230.16 92.9326 228.984C92.9326 227.784 91.2286 227.16 88.2526 227.16C85.3246 227.16 83.6206 227.784 83.6206 228.984ZM100.101 213.576H112.149V216.024H107.637V217.392C107.637 220.896 109.485 224.592 113.013 226.08L111.381 228.432C108.909 227.352 107.157 225.192 106.197 222.6C105.237 225.432 103.461 227.808 100.941 228.96L99.2612 226.608C102.789 225 104.637 221.04 104.637 217.392V216.024H100.101V213.576ZM114.237 233.016V211.512H117.213V233.016H114.237ZM127.841 213.264H142.745V215.688H130.793V221.448H142.913V223.8H127.841V213.264ZM125.561 230.376V227.952H145.025V230.376H125.561ZM146.338 222.192H154.57V220.848H148.762V215.256H160.474V214.08H148.714V211.824H163.402V217.368H151.666V218.616H163.834V220.848H157.546V222.192H165.802V224.568H146.338V222.192ZM148.786 232.776V225.36H151.714V226.8H160.57V225.36H163.498V232.776H148.786ZM151.714 230.472H160.57V229.008H151.714V230.472ZM183.221 218.28H187.445V211.464H190.397V233.04H187.445V220.68H183.221V218.28ZM172.133 226.272C175.733 224.592 177.461 220.44 177.461 216.36V213.168H180.437V216.36C180.437 220.416 182.069 224.352 185.597 225.936L183.821 228.312C181.469 227.16 179.861 225 178.973 222.336C178.037 225.144 176.381 227.448 173.981 228.648L172.133 226.272ZM208.03 211.464H211.006V233.04H208.03V211.464ZM194.278 228V213.216H197.23V218.472H201.862V213.216H204.79V228H194.278ZM197.23 225.624H201.862V220.8H197.23V225.624ZM222.038 212.736H225.206V214.296C225.206 217.512 227.99 220.848 232.766 221.664L231.47 224.136C227.774 223.392 225.014 221.304 223.622 218.544C222.206 221.28 219.446 223.392 215.75 224.136L214.478 221.664C219.206 220.848 222.038 217.44 222.038 214.296V212.736ZM213.998 230.328V227.904H233.462V230.328H213.998ZM240.106 228.024H248.242V223.176H251.218V228.024H259.57V230.448H240.106V228.024ZM240.562 221.352C245.362 220.584 248.146 217.296 248.146 214.272V212.688H251.314V214.272C251.314 217.344 254.098 220.584 258.874 221.352L257.65 223.848C253.906 223.128 251.122 221.112 249.73 218.424C248.314 221.088 245.53 223.152 241.81 223.848L240.562 221.352ZM276.387 211.488H279.243V232.992H276.387V222.048H274.419V232.056H271.611V212.04H274.419V219.648H276.387V211.488ZM260.595 226.512C264.963 223.92 266.811 220.776 267.195 216.528H261.651V214.152H270.123C270.123 220.152 268.347 225.072 262.323 228.576L260.595 226.512Z" fill="white"/>
<path d="M52.7381 259.168H53.8901V273.168H52.7381V265.728H50.7701V272.448H49.6341V259.488H50.7701V264.736H52.7381V259.168ZM42.5461 269.376V260.8H47.8421V269.376H42.5461ZM43.6661 268.432H46.7221V261.76H43.6661V268.432ZM66.4905 259.184H67.6905V269.536H66.4905V264.128H63.1945V267.136H56.9065V260.096H58.0905V262.608H62.0105V260.096H63.1945V263.136H66.4905V259.184ZM58.0905 266.144H62.0105V263.552H58.0905V266.144ZM58.7305 272.848V268.528H59.9305V271.856H68.0265V272.848H58.7305ZM83.8264 259.168H85.0264V264.96H87.3464V265.968H85.0264V273.168H83.8264V259.168ZM74.1944 262.416V261.424H77.7784V259.328H78.9944V261.424H82.4824V262.416H74.1944ZM75.0104 266.816C75.0104 264.928 76.4504 263.616 78.4024 263.616C80.3704 263.616 81.7944 264.928 81.7944 266.816C81.7944 268.704 80.3704 270.016 78.4024 270.016C76.4504 270.016 75.0104 268.704 75.0104 266.816ZM76.1624 266.816C76.1624 268.096 77.0904 269.008 78.4024 269.008C79.6984 269.008 80.6424 268.096 80.6424 266.816C80.6424 265.536 79.6984 264.608 78.4024 264.608C77.0904 264.608 76.1624 265.536 76.1624 266.816ZM98.0108 259.152H99.2108V264.784H101.467V265.792H99.2108V273.168H98.0108V259.152ZM89.0508 269.6V260.544H90.2348V268.608C92.2668 268.608 94.3788 268.448 96.6668 267.968L96.8108 268.976C94.4108 269.456 92.2828 269.6 90.1548 269.6H89.0508ZM112.195 259.168H113.395V264.96H115.715V265.968H113.395V273.168H112.195V259.168ZM102.563 262.416V261.424H106.147V259.328H107.363V261.424H110.851V262.416H102.563ZM103.379 266.816C103.379 264.928 104.819 263.616 106.771 263.616C108.739 263.616 110.163 264.928 110.163 266.816C110.163 268.704 108.739 270.016 106.771 270.016C104.819 270.016 103.379 268.704 103.379 266.816ZM104.531 266.816C104.531 268.096 105.459 269.008 106.771 269.008C108.067 269.008 109.011 268.096 109.011 266.816C109.011 265.536 108.067 264.608 106.771 264.608C105.459 264.608 104.531 265.536 104.531 266.816ZM126.38 259.152H127.58V264.784H129.836V265.792H127.58V273.168H126.38V259.152ZM117.42 269.6V260.544H118.604V268.608C120.636 268.608 122.748 268.448 125.036 267.968L125.18 268.976C122.78 269.456 120.652 269.6 118.524 269.6H117.42ZM135.299 260.816H138.451V259.104H139.635V260.816H142.771V261.808H139.635V262.08C139.635 263.792 141.043 265.328 143.075 265.92L142.515 266.864C140.915 266.368 139.667 265.312 139.059 263.968C138.467 265.456 137.155 266.592 135.507 267.136L134.931 266.192C136.979 265.568 138.451 263.952 138.451 262.08V261.808H135.299V260.816ZM136.307 272.192C138.547 271.824 140.595 270.576 140.787 269.072H136.867V268.08H146.003V269.072H142.067C142.259 270.544 144.323 271.824 146.531 272.208L146.067 273.12C144.067 272.768 142.227 271.744 141.427 270.352C140.643 271.76 138.787 272.752 136.771 273.12L136.307 272.192ZM144.547 267.312V259.168H145.747V262.656H147.843V263.648H145.747V267.312H144.547ZM152.812 260.256C154.86 260.256 156.3 262.144 156.3 265.12C156.3 268.096 154.86 270 152.812 270C150.764 270 149.308 268.096 149.308 265.12C149.308 262.144 150.764 260.256 152.812 260.256ZM150.46 265.12C150.46 267.408 151.42 268.928 152.812 268.928C154.204 268.928 155.164 267.408 155.164 265.12C155.164 262.832 154.204 261.328 152.812 261.328C151.42 261.328 150.46 262.832 150.46 265.12ZM158.636 273.168V259.168H159.836V264.8H162.156V265.808H159.836V273.168H158.636ZM163.268 270.352H168.996V267.296H164.788V260.16H165.972V262.688H173.236V260.16H174.42V267.296H170.18V270.352H175.956V271.36H163.268V270.352ZM165.972 266.32H173.236V263.68H165.972V266.32ZM187.709 259.168H188.909V273.168H187.709V259.168ZM177.629 269.568C181.405 267.76 183.309 265.024 183.565 261.664H178.253V260.672H184.781C184.781 264.704 182.925 268.256 178.269 270.528L177.629 269.568ZM205.764 259.168H206.964V267.648H205.764V259.168ZM195.716 261.664V260.688H199.38V259.04H200.58V260.688H204.228V261.664H195.716ZM196.564 264.864C196.564 263.344 197.924 262.368 199.972 262.368C202.036 262.368 203.38 263.344 203.38 264.864C203.38 266.384 202.036 267.36 199.972 267.36C197.924 267.36 196.564 266.384 196.564 264.864ZM197.716 264.864C197.716 265.824 198.612 266.432 199.972 266.432C201.348 266.432 202.244 265.824 202.244 264.864C202.244 263.904 201.348 263.296 199.972 263.296C198.612 263.296 197.716 263.904 197.716 264.864ZM197.956 272.976V268.4H206.964V272.976H197.956ZM199.124 272H205.796V269.376H199.124V272ZM209.725 265.072H222.365V266.048H209.725V265.072ZM211.245 268.256V267.312H220.717V270.544H212.461V272.032H221.149V273.008H211.293V269.648H219.549V268.256H211.245ZM211.421 263.888V259.648H220.701V260.64H212.605V262.928H220.861V263.888H211.421ZM227.509 267.712H228.661V268.56C228.661 269.824 229.333 271.168 230.645 271.952C232.005 271.104 232.693 269.648 232.693 268.56V267.712H233.861V268.56C233.861 270.016 234.917 271.488 236.693 272.096L236.085 272.992C234.709 272.48 233.733 271.488 233.269 270.304C232.837 271.456 231.989 272.544 230.677 273.12C229.333 272.576 228.485 271.552 228.069 270.368C227.573 271.504 226.613 272.48 225.285 272.992L224.677 272.096C226.437 271.44 227.509 269.92 227.509 268.56V267.712ZM224.149 263.232C224.149 261.312 225.653 259.968 227.717 259.968C229.573 259.968 230.997 261.072 231.253 262.704H234.197V259.168H235.397V267.168H234.197V263.696H231.253C231.029 265.376 229.589 266.496 227.717 266.496C225.653 266.496 224.149 265.168 224.149 263.232ZM225.285 263.232C225.285 264.56 226.309 265.504 227.717 265.504C229.109 265.504 230.133 264.56 230.133 263.232C230.133 261.92 229.109 260.976 227.717 260.976C226.309 260.976 225.285 261.92 225.285 263.232ZM238.878 260.336H245.278V261.328H240.062V266.336C242.558 266.336 244.19 266.24 246.078 265.872L246.206 266.848C244.222 267.216 242.558 267.312 239.934 267.312H238.878V260.336ZM240.654 272.944V268.64H241.838V271.968H249.95V272.944H240.654ZM244.366 264.048V263.072H248.366V259.168H249.566V269.392H248.366V264.048H244.366ZM262.421 268.032C265.397 268.032 267.301 268.992 267.301 270.592C267.301 272.192 265.397 273.152 262.421 273.152C259.461 273.152 257.573 272.192 257.573 270.592C257.573 268.992 259.461 268.032 262.421 268.032ZM256.165 266.704V265.728H261.413V263.008H262.597V265.728H268.789V266.704H256.165ZM257.669 260.88V259.888H267.173V261.088C267.173 262.224 267.173 263.344 266.789 264.784L265.621 264.656C265.989 263.216 265.989 262.176 265.989 261.088V260.88H257.669ZM258.757 270.592C258.757 271.584 260.197 272.208 262.421 272.208C264.661 272.208 266.101 271.584 266.101 270.592C266.101 269.584 264.661 268.96 262.421 268.96C260.197 268.96 258.757 269.584 258.757 270.592ZM270.766 260.608H278.59V261.616H275.262V263.504C275.262 265.888 277.022 268.288 279.038 269.168L278.35 270.128C276.75 269.376 275.326 267.744 274.67 265.808C274.03 267.872 272.622 269.664 271.022 270.464L270.334 269.52C272.302 268.56 274.062 265.92 274.062 263.504V261.616H270.766V260.608ZM280.542 273.168V259.168H281.742V273.168H280.542ZM287.99 260.4H289.158V262.944C289.158 265.408 290.79 267.968 292.758 268.944L292.022 269.888C290.502 269.088 289.206 267.424 288.598 265.456C287.974 267.536 286.646 269.328 285.078 270.176L284.342 269.2C286.342 268.192 287.99 265.504 287.99 262.944V260.4ZM294.054 273.168V259.168H295.254V264.864H297.59V265.888H295.254V273.168H294.054ZM308.351 259.168H309.551V263.088H311.647V264.096H309.551V268.192H308.351V259.168ZM298.751 261.744V260.784H302.286V259.04H303.487V260.784H307.023V261.744H298.751ZM299.551 264.928C299.551 263.44 300.879 262.48 302.879 262.48C304.879 262.48 306.223 263.44 306.223 264.928C306.223 266.448 304.879 267.408 302.879 267.408C300.879 267.408 299.551 266.448 299.551 264.928ZM300.639 270.72C300.639 269.2 302.351 268.32 305.183 268.32C307.999 268.32 309.711 269.2 309.711 270.72C309.711 272.24 307.999 273.136 305.183 273.136C302.351 273.136 300.639 272.24 300.639 270.72ZM300.687 264.928C300.687 265.872 301.567 266.496 302.879 266.496C304.191 266.496 305.071 265.872 305.071 264.928C305.071 264 304.191 263.392 302.879 263.392C301.567 263.392 300.687 264 300.687 264.928ZM301.823 270.72C301.823 271.664 303.103 272.208 305.183 272.208C307.263 272.208 308.543 271.664 308.543 270.72C308.543 269.792 307.263 269.248 305.183 269.248C303.103 269.248 301.823 269.792 301.823 270.72ZM314.679 270.784L313.799 273.744H312.951L313.431 270.784H314.679ZM82.1103 288.816H85.2623V287.104H86.4463V288.816H89.5823V289.808H86.4463V290.08C86.4463 291.792 87.8543 293.328 89.8863 293.92L89.3263 294.864C87.7263 294.368 86.4783 293.312 85.8703 291.968C85.2783 293.456 83.9663 294.592 82.3183 295.136L81.7423 294.192C83.7903 293.568 85.2623 291.952 85.2623 290.08V289.808H82.1103V288.816ZM83.1183 300.192C85.3583 299.824 87.4063 298.576 87.5983 297.072H83.6783V296.08H92.8143V297.072H88.8783C89.0703 298.544 91.1343 299.824 93.3423 300.208L92.8783 301.12C90.8783 300.768 89.0383 299.744 88.2383 298.352C87.4543 299.76 85.5983 300.752 83.5823 301.12L83.1183 300.192ZM91.3583 295.312V287.168H92.5583V290.656H94.6543V291.648H92.5583V295.312H91.3583ZM96.3267 288.608H104.151V289.616H100.823V291.504C100.823 293.888 102.583 296.288 104.599 297.168L103.911 298.128C102.311 297.376 100.887 295.744 100.231 293.808C99.5907 295.872 98.1827 297.664 96.5827 298.464L95.8947 297.52C97.8627 296.56 99.6227 293.92 99.6227 291.504V289.616H96.3267V288.608ZM106.103 301.168V287.168H107.303V301.168H106.103ZM123.631 287.168H124.831V290.224H126.911V291.216H124.831V294.304H123.631V287.168ZM114.591 293.552V287.968H120.991V293.552H114.591ZM115.759 292.592H119.823V288.928H115.759V292.592ZM115.983 295.936V294.976H124.831V298.368H117.199V300H125.343V300.976H116.015V297.456H123.647V295.936H115.983ZM129.495 288.592H139.255V289.984C139.255 291.712 139.255 293.616 138.759 296.432L137.543 296.288C138.055 293.616 138.055 291.664 138.055 289.984V289.584H129.495V288.592ZM128.151 299.168V298.16H133.127V293.136H134.311V298.16H140.807V299.168H128.151ZM155.871 287.168H157.071V290.224H159.167V291.216H157.071V294.304H155.871V287.168ZM146.511 290.784C146.511 288.96 148.031 287.68 150.095 287.68C152.191 287.68 153.711 288.96 153.711 290.784C153.711 292.624 152.191 293.888 150.095 293.888C148.031 293.888 146.511 292.624 146.511 290.784ZM147.679 290.784C147.679 292.016 148.703 292.912 150.095 292.912C151.519 292.912 152.543 292.016 152.543 290.784C152.543 289.552 151.519 288.656 150.095 288.656C148.703 288.656 147.679 289.552 147.679 290.784ZM148.239 295.936V294.976H157.071V298.368H149.455V300H157.583V300.976H148.271V297.456H155.887V295.936H148.239ZM170.647 287.168H171.863V295.456H170.647V287.168ZM161.095 288.992V288H167.431V291.792H162.295V293.792C164.791 293.792 166.663 293.712 168.903 293.344L169.047 294.336C166.727 294.704 164.823 294.784 162.247 294.784H161.127V290.848H166.263V288.992H161.095ZM162.855 300.976V296.256H171.863V300.976H162.855ZM164.023 300H170.679V297.216H164.023V300ZM174.592 294.736H180.304V293.216H176.272V287.552H185.664V288.512H177.472V289.872H185.296V290.8H177.472V292.272H185.744V293.216H181.504V294.736H187.232V295.712H174.592V294.736ZM176 297.968V296.992H185.584V301.168H184.384V297.968H176ZM195.096 288.064C198.008 288.064 200.168 289.6 200.168 291.904C200.168 294.224 198.008 295.744 195.096 295.744C192.2 295.744 190.024 294.224 190.024 291.904C190.024 289.6 192.2 288.064 195.096 288.064ZM188.776 299.28V298.272H201.464V299.28H188.776ZM191.176 291.904C191.176 293.616 192.856 294.768 195.096 294.768C197.352 294.768 199.016 293.616 199.016 291.904C199.016 290.208 197.352 289.04 195.096 289.04C192.856 289.04 191.176 290.208 191.176 291.904ZM202.96 298.416H208.688V295.728H204.56V291.44H212.88V289.184H204.528V288.208H214.064V292.4H205.744V294.752H214.384V295.728H209.872V298.416H215.648V299.408H202.96V298.416ZM230.696 287.168H231.896V290.544H233.976V291.568H231.896V295.36H230.696V287.168ZM221.656 294.464V287.936H222.84V290.128H226.92V287.936H228.104V294.464H221.656ZM222.84 293.472H226.92V291.088H222.84V293.472ZM223.192 300.976V296.144H232.008V297.12H224.392V299.984H232.28V300.976H223.192ZM241.537 288.064C244.449 288.064 246.609 289.6 246.609 291.904C246.609 294.224 244.449 295.744 241.537 295.744C238.641 295.744 236.465 294.224 236.465 291.904C236.465 289.6 238.641 288.064 241.537 288.064ZM235.217 299.28V298.272H247.905V299.28H235.217ZM237.617 291.904C237.617 293.616 239.297 294.768 241.537 294.768C243.793 294.768 245.457 293.616 245.457 291.904C245.457 290.208 243.793 289.04 241.537 289.04C239.297 289.04 237.617 290.208 237.617 291.904ZM254.905 292.208H257.273V287.488H258.393V300.448H257.273V293.216H254.905V292.208ZM249.241 297.232C251.145 296.112 252.345 293.6 252.345 291.2V288.512H253.497V291.168C253.497 293.392 254.601 295.792 256.441 296.896L255.737 297.824C254.393 297.024 253.433 295.504 252.937 293.808C252.425 295.664 251.385 297.28 249.993 298.128L249.241 297.232ZM260.121 301.168V287.168H261.273V301.168H260.121ZM263.585 298.352H266.737V294.528C265.553 293.92 264.833 292.912 264.833 291.648C264.833 289.472 266.961 288.064 269.905 288.064C272.881 288.064 274.977 289.472 274.977 291.648C274.977 292.896 274.273 293.888 273.121 294.512V298.352H276.273V299.344H263.585V298.352ZM266.001 291.648C266.001 293.232 267.633 294.272 269.905 294.272C272.177 294.272 273.825 293.232 273.825 291.648C273.825 290.064 272.177 289.024 269.905 289.024C267.633 289.024 266.001 290.064 266.001 291.648ZM267.921 298.352H271.921V294.976C271.313 295.136 270.641 295.216 269.905 295.216C269.185 295.216 268.529 295.136 267.921 294.976V298.352Z" fill="#E2E8F0"/>
<path d="M45.548 367.528C48.152 367.528 49.818 368.368 49.818 369.768C49.818 371.168 48.152 372.008 45.548 372.008C42.958 372.008 41.306 371.168 41.306 369.768C41.306 368.368 42.958 367.528 45.548 367.528ZM40.074 366.366V365.512H44.666V363.132H45.702V365.512H51.12V366.366H40.074ZM41.39 361.27V360.402H49.706V361.452C49.706 362.446 49.706 363.426 49.37 364.686L48.348 364.574C48.67 363.314 48.67 362.404 48.67 361.452V361.27H41.39ZM42.342 369.768C42.342 370.636 43.602 371.182 45.548 371.182C47.508 371.182 48.768 370.636 48.768 369.768C48.768 368.886 47.508 368.34 45.548 368.34C43.602 368.34 42.342 368.886 42.342 369.768ZM52.8743 361.032H59.7203V361.914H56.8083V363.566C56.8083 365.652 58.3483 367.752 60.1123 368.522L59.5103 369.362C58.1103 368.704 56.8643 367.276 56.2903 365.582C55.7303 367.388 54.4983 368.956 53.0983 369.656L52.4963 368.83C54.2183 367.99 55.7583 365.68 55.7583 363.566V361.914H52.8743V361.032ZM61.4283 372.022V359.772H62.4783V372.022H61.4283ZM66.3607 360.906H74.6067V361.774H67.3967V365.666H74.7467V366.52H66.3607V360.906ZM64.9327 370.328V369.46H76.0347V370.328H64.9327ZM77.369 366.058H82.381V364.84H78.811V362.012H85.993V360.864H78.783V360.038H87.029V362.81H79.833V364.014H87.295V364.84H83.431V366.058H88.471V366.926H77.369V366.058ZM78.867 371.854V367.556H79.903V368.788H85.993V367.556H87.029V371.854H78.867ZM79.903 371.014H85.993V369.6H79.903V371.014ZM89.8053 366.24H100.865V367.094H89.8053V366.24ZM91.0373 362.628C91.0373 361.102 92.7173 360.192 95.3353 360.192C97.9533 360.192 99.6333 361.102 99.6333 362.628C99.6333 364.154 97.9533 365.064 95.3353 365.064C92.7173 365.064 91.0373 364.154 91.0373 362.628ZM91.2473 371.756V368.2H92.2973V370.888H99.6473V371.756H91.2473ZM92.1153 362.628C92.1153 363.608 93.3893 364.21 95.3353 364.21C97.2953 364.21 98.5553 363.608 98.5553 362.628C98.5553 361.648 97.2953 361.06 95.3353 361.06C93.3893 361.06 92.1153 361.648 92.1153 362.628ZM111.156 367.528C113.76 367.528 115.426 368.368 115.426 369.768C115.426 371.168 113.76 372.008 111.156 372.008C108.566 372.008 106.914 371.168 106.914 369.768C106.914 368.368 108.566 367.528 111.156 367.528ZM105.682 366.366V365.512H110.274V363.132H111.31V365.512H116.728V366.366H105.682ZM106.998 361.27V360.402H115.314V361.452C115.314 362.446 115.314 363.426 114.978 364.686L113.956 364.574C114.278 363.314 114.278 362.404 114.278 361.452V361.27H106.998ZM107.95 369.768C107.95 370.636 109.21 371.182 111.156 371.182C113.116 371.182 114.376 370.636 114.376 369.768C114.376 368.886 113.116 368.34 111.156 368.34C109.21 368.34 107.95 368.886 107.95 369.768ZM118.483 361.032H125.329V361.914H122.417V363.566C122.417 365.652 123.957 367.752 125.721 368.522L125.119 369.362C123.719 368.704 122.473 367.276 121.899 365.582C121.339 367.388 120.107 368.956 118.707 369.656L118.105 368.83C119.827 367.99 121.367 365.68 121.367 363.566V361.914H118.483V361.032ZM127.037 372.022V359.772H128.087V372.022H127.037ZM133.579 360.85H134.601V363.076C134.601 365.232 136.029 367.472 137.751 368.326L137.107 369.152C135.777 368.452 134.643 366.996 134.111 365.274C133.565 367.094 132.403 368.662 131.031 369.404L130.387 368.55C132.137 367.668 133.579 365.316 133.579 363.076V360.85ZM138.885 372.022V359.772H139.935V364.756H141.979V365.652H139.935V372.022H138.885ZM151.419 359.772H152.469V363.202H154.303V364.084H152.469V367.668H151.419V359.772ZM143.019 362.026V361.186H146.113V359.66H147.163V361.186H150.257V362.026H143.019ZM143.719 364.812C143.719 363.51 144.881 362.67 146.631 362.67C148.381 362.67 149.557 363.51 149.557 364.812C149.557 366.142 148.381 366.982 146.631 366.982C144.881 366.982 143.719 366.142 143.719 364.812ZM144.671 369.88C144.671 368.55 146.169 367.78 148.647 367.78C151.111 367.78 152.609 368.55 152.609 369.88C152.609 371.21 151.111 371.994 148.647 371.994C146.169 371.994 144.671 371.21 144.671 369.88ZM144.713 364.812C144.713 365.638 145.483 366.184 146.631 366.184C147.779 366.184 148.549 365.638 148.549 364.812C148.549 364 147.779 363.468 146.631 363.468C145.483 363.468 144.713 364 144.713 364.812ZM145.707 369.88C145.707 370.706 146.827 371.182 148.647 371.182C150.467 371.182 151.587 370.706 151.587 369.88C151.587 369.068 150.467 368.592 148.647 368.592C146.827 368.592 145.707 369.068 145.707 369.88ZM167.8 359.786H168.864V367.332H167.8V359.786ZM159.442 361.41V360.556H164.986V363.902H160.492V365.68C162.676 365.68 164.314 365.61 166.274 365.288L166.4 366.156C164.37 366.478 162.704 366.548 160.45 366.548H159.47V363.076H163.964V361.41H159.442ZM160.73 369.782C160.73 368.382 162.284 367.584 164.846 367.584C167.38 367.584 168.948 368.382 168.948 369.782C168.948 371.196 167.38 371.994 164.846 371.994C162.284 371.994 160.73 371.196 160.73 369.782ZM161.78 369.782C161.78 370.65 162.928 371.168 164.846 371.168C166.736 371.168 167.898 370.65 167.898 369.782C167.898 368.942 166.736 368.424 164.846 368.424C162.928 368.424 161.78 368.942 161.78 369.782ZM172.606 361.032H180.964V362.544C180.964 364.35 180.964 366.016 180.46 368.494L179.41 368.396C179.676 367.22 179.802 366.184 179.872 365.218L172.438 365.624L172.284 364.756L179.9 364.434C179.928 363.79 179.928 363.16 179.928 362.544V361.9H172.606V361.032ZM171.276 370.286V369.404H182.35V370.286H171.276ZM183.713 365.498H194.815V366.296H183.713V365.498ZM185.043 368.088V367.318H193.415V369.908H186.107V371.084H193.807V371.868H185.071V369.166H192.393V368.088H185.043ZM185.127 360.92V360.15H193.373V362.67H186.177V363.762H193.597V364.546H185.155V361.942H192.337V360.92H185.127ZM199.59 365.638H210.65V366.506H199.59V365.638ZM200.92 369.796C200.92 368.396 202.488 367.598 205.106 367.598C207.71 367.598 209.292 368.396 209.292 369.796C209.292 371.21 207.71 372.008 205.106 372.008C202.488 372.008 200.92 371.21 200.92 369.796ZM200.99 364.434V360.276H209.264V361.158H202.026V363.58H209.348V364.434H200.99ZM201.97 369.796C201.97 370.678 203.16 371.168 205.106 371.168C207.052 371.168 208.228 370.678 208.228 369.796C208.228 368.942 207.052 368.424 205.106 368.424C203.16 368.424 201.97 368.942 201.97 369.796ZM212.012 366.534H217.024V365.19H213.454V362.25H220.636V360.934H213.426V360.094H221.672V363.02H214.476V364.364H221.938V365.19H218.074V366.534H223.114V367.402H212.012V366.534ZM213.244 369.222V368.354H221.742V371.896H220.692V369.222H213.244ZM232.806 359.772H233.856V364.84H235.886V365.722H233.856V372.022H232.806V359.772ZM224.378 362.614V361.746H227.514V359.912H228.578V361.746H231.63V362.614H224.378ZM225.092 366.464C225.092 364.812 226.352 363.664 228.06 363.664C229.782 363.664 231.028 364.812 231.028 366.464C231.028 368.116 229.782 369.264 228.06 369.264C226.352 369.264 225.092 368.116 225.092 366.464ZM226.1 366.464C226.1 367.584 226.912 368.382 228.06 368.382C229.194 368.382 230.02 367.584 230.02 366.464C230.02 365.344 229.194 364.532 228.06 364.532C226.912 364.532 226.1 365.344 226.1 366.464ZM238.061 361.018H246.601V362.236C246.601 363.748 246.601 365.414 246.167 367.878L245.103 367.752C245.551 365.414 245.551 363.706 245.551 362.236V361.886H238.061V361.018ZM236.885 370.272V369.39H241.239V364.994H242.275V369.39H247.959V370.272H236.885ZM250.889 369.936L250.119 372.526H249.377L249.797 369.936H250.889ZM48.502 383.772H49.552V386.446H51.386V387.314H49.552V390.016H48.502V383.772ZM40.312 386.936C40.312 385.34 41.642 384.22 43.448 384.22C45.282 384.22 46.612 385.34 46.612 386.936C46.612 388.546 45.282 389.652 43.448 389.652C41.642 389.652 40.312 388.546 40.312 386.936ZM41.334 386.936C41.334 388.014 42.23 388.798 43.448 388.798C44.694 388.798 45.59 388.014 45.59 386.936C45.59 385.858 44.694 385.074 43.448 385.074C42.23 385.074 41.334 385.858 41.334 386.936ZM41.824 391.444V390.604H49.552V393.572H42.888V395H50V395.854H41.852V392.774H48.516V391.444H41.824ZM61.4563 383.772H62.5203V391.024H61.4563V383.772ZM53.0983 385.368V384.5H58.6423V387.818H54.1483V389.568C56.3323 389.568 57.9703 389.498 59.9303 389.176L60.0563 390.044C58.0263 390.366 56.3603 390.436 54.1063 390.436H53.1263V386.992H57.6203V385.368H53.0983ZM54.6383 395.854V391.724H62.5203V395.854H54.6383ZM55.6603 395H61.4843V392.564H55.6603V395ZM73.3887 383.772H74.4387V386.726H76.2587V387.622H74.4387V390.94H73.3887V383.772ZM65.4787 390.156V384.444H66.5147V386.362H70.0847V384.444H71.1207V390.156H65.4787ZM66.5147 389.288H70.0847V387.202H66.5147V389.288ZM66.8227 395.854V391.626H74.5367V392.48H67.8727V394.986H74.7747V395.854H66.8227ZM82.899 383.996C85.587 383.996 87.197 384.738 87.197 386.11C87.197 387.482 85.587 388.238 82.899 388.238C80.211 388.238 78.601 387.482 78.601 386.11C78.601 384.738 80.211 383.996 82.899 383.996ZM77.369 389.946V389.092H88.429V389.946H77.369ZM78.713 391.836V391.024H87.001V393.74H79.777V395.056H87.379V395.882H78.755V392.97H85.979V391.836H78.713ZM79.679 386.11C79.679 386.964 80.883 387.44 82.899 387.44C84.915 387.44 86.119 386.964 86.119 386.11C86.119 385.27 84.915 384.78 82.899 384.78C80.883 384.78 79.679 385.27 79.679 386.11ZM99.7139 385.046C99.7139 388.574 98.4539 391.85 94.0579 394.006L93.4839 393.18C95.7659 392.06 97.1799 390.632 97.9499 388.966L93.7079 389.372L93.5259 388.434L98.2719 388.112C98.5099 387.412 98.6359 386.684 98.6779 385.914H94.1419V385.046H99.7139ZM102.206 396.022V383.772H103.256V396.022H102.206ZM114.628 383.772H115.678V396.036H114.628V392.984H111.814V392.144H114.628V383.772ZM105.612 390.254C107.922 390.254 111.002 390.24 113.676 389.862L113.746 390.632C112.542 390.842 111.282 390.954 110.064 391.024V395.644H109.014V391.08C107.838 391.122 106.718 391.136 105.738 391.136L105.612 390.254ZM106.522 386.796C106.522 385.354 107.782 384.402 109.602 384.402C111.408 384.402 112.654 385.354 112.654 386.796C112.654 388.252 111.408 389.19 109.602 389.19C107.782 389.19 106.522 388.252 106.522 386.796ZM107.516 386.796C107.516 387.748 108.37 388.378 109.602 388.378C110.82 388.378 111.66 387.748 111.66 386.796C111.66 385.858 110.82 385.214 109.602 385.214C108.37 385.214 107.516 385.858 107.516 386.796ZM119.533 384.906H127.779V385.774H120.569V389.666H127.919V390.52H119.533V384.906ZM118.105 394.328V393.46H129.207V394.328H118.105ZM130.541 389.498H141.643V390.296H130.541V389.498ZM131.871 392.088V391.318H140.243V393.908H132.935V395.084H140.635V395.868H131.899V393.166H139.221V392.088H131.871ZM131.955 384.92V384.15H140.201V386.67H133.005V387.762H140.425V388.546H131.983V385.942H139.165V384.92H131.955ZM155.364 383.772H156.414V390.338H155.364V383.772ZM146.684 387.174C146.684 385.508 148.014 384.374 149.862 384.374C151.71 384.374 153.04 385.508 153.04 387.174C153.04 388.84 151.71 389.988 149.862 389.988C148.014 389.988 146.684 388.84 146.684 387.174ZM147.706 387.174C147.706 388.308 148.616 389.106 149.862 389.106C151.108 389.106 152.018 388.308 152.018 387.174C152.018 386.04 151.108 385.242 149.862 385.242C148.616 385.242 147.706 386.04 147.706 387.174ZM148.56 395.854V390.968H149.596V392.48H155.378V390.968H156.414V395.854H148.56ZM149.596 395H155.378V393.32H149.596V395ZM159.316 384.514H164.594V387.944H160.394V389.876C162.704 389.876 163.88 389.834 165.322 389.568L165.434 390.422C163.908 390.688 162.69 390.73 160.212 390.73H159.358V387.118H163.558V385.382H159.316V384.514ZM160.716 392.83V391.976H168.892V396.05H167.842V392.83H160.716ZM165.406 388.994V388.14H167.842V386.474H165.406V385.606H167.842V383.786H168.892V391.304H167.842V388.994H165.406ZM179.634 383.772H180.684V388.84H182.714V389.722H180.684V396.022H179.634V383.772ZM171.206 386.614V385.746H174.342V383.912H175.406V385.746H178.458V386.614H171.206ZM171.92 390.464C171.92 388.812 173.18 387.664 174.888 387.664C176.61 387.664 177.856 388.812 177.856 390.464C177.856 392.116 176.61 393.264 174.888 393.264C173.18 393.264 171.92 392.116 171.92 390.464ZM172.928 390.464C172.928 391.584 173.74 392.382 174.888 392.382C176.022 392.382 176.848 391.584 176.848 390.464C176.848 389.344 176.022 388.532 174.888 388.532C173.74 388.532 172.928 389.344 172.928 390.464ZM184.287 384.836H189.845V385.956H192.715V383.786H193.765V392.718H192.715V389.442H189.845V390.548H184.287V384.836ZM185.309 389.694H188.823V385.69H185.309V389.694ZM185.925 395.742V391.92H186.975V394.874H194.059V395.742H185.925ZM189.845 388.574H192.715V386.824H189.845V388.574ZM199.548 385.9H202.082V384.122H203.118V385.9H205.638V386.754H199.548V385.9ZM199.982 390.38C199.982 388.756 201.074 387.608 202.6 387.608C204.126 387.608 205.232 388.756 205.232 390.38C205.232 392.032 204.126 393.166 202.6 393.166C201.074 393.166 199.982 392.032 199.982 390.38ZM200.92 390.38C200.92 391.486 201.62 392.27 202.6 392.27C203.58 392.27 204.294 391.486 204.294 390.38C204.294 389.288 203.58 388.49 202.6 388.49C201.62 388.49 200.92 389.288 200.92 390.38ZM206.282 395.406V384.066H207.276V388.952H208.914V383.772H209.908V396.022H208.914V389.82H207.276V395.406H206.282ZM220.468 383.772H221.532V386.992H223.338V387.874H221.532V391.08H220.468V383.772ZM212.586 390.072V384.71H217.99V385.592H213.636V389.204C216.1 389.204 217.5 389.134 219.138 388.798L219.264 389.652C217.556 389.988 216.086 390.072 213.538 390.072H212.586ZM213.608 393.67C213.608 392.2 215.148 391.332 217.626 391.332C220.104 391.332 221.644 392.2 221.644 393.67C221.644 395.14 220.104 395.994 217.626 395.994C215.148 395.994 213.608 395.14 213.608 393.67ZM214.63 393.67C214.63 394.58 215.778 395.14 217.626 395.14C219.46 395.14 220.608 394.58 220.608 393.67C220.608 392.732 219.46 392.186 217.626 392.186C215.778 392.186 214.63 392.732 214.63 393.67ZM234.357 385.046C234.357 388.574 233.097 391.85 228.701 394.006L228.127 393.18C230.409 392.06 231.823 390.632 232.593 388.966L228.351 389.372L228.169 388.434L232.915 388.112C233.153 387.412 233.279 386.684 233.321 385.914H228.785V385.046H234.357ZM236.849 396.022V383.772H237.899V396.022H236.849ZM249.271 383.772H250.321V396.036H249.271V392.984H246.457V392.144H249.271V383.772ZM240.255 390.254C242.565 390.254 245.645 390.24 248.319 389.862L248.389 390.632C247.185 390.842 245.925 390.954 244.707 391.024V395.644H243.657V391.08C242.481 391.122 241.361 391.136 240.381 391.136L240.255 390.254ZM241.165 386.796C241.165 385.354 242.425 384.402 244.245 384.402C246.051 384.402 247.297 385.354 247.297 386.796C247.297 388.252 246.051 389.19 244.245 389.19C242.425 389.19 241.165 388.252 241.165 386.796ZM242.159 386.796C242.159 387.748 243.013 388.378 244.245 388.378C245.463 388.378 246.303 387.748 246.303 386.796C246.303 385.858 245.463 385.214 244.245 385.214C243.013 385.214 242.159 385.858 242.159 386.796ZM254.176 384.906H262.422V385.774H255.212V389.666H262.562V390.52H254.176V384.906ZM252.748 394.328V393.46H263.85V394.328H252.748ZM265.184 389.498H276.286V390.296H265.184V389.498ZM266.514 392.088V391.318H274.886V393.908H267.578V395.084H275.278V395.868H266.542V393.166H273.864V392.088H266.514ZM266.598 384.92V384.15H274.844V386.67H267.648V387.762H275.068V388.546H266.626V385.942H273.808V384.92H266.598ZM281.047 393.6H286.045V390.744H282.069V389.89H283.959V385.816H282.041V384.962H291.099V385.816H289.167V389.89H291.085V390.744H287.081V393.6H292.149V394.482H281.047V393.6ZM285.023 389.89H288.131V385.816H285.023V389.89ZM301.925 383.772H302.975V387.048H304.809V387.916H302.975V391.136H301.925V383.772ZM293.525 385.942V385.088H296.619V383.66H297.669V385.088H300.763V385.942H293.525ZM294.225 388.756C294.225 387.44 295.387 386.572 297.137 386.572C298.887 386.572 300.063 387.44 300.063 388.756C300.063 390.086 298.887 390.94 297.137 390.94C295.387 390.94 294.225 390.086 294.225 388.756ZM295.219 388.756C295.219 389.596 295.989 390.128 297.137 390.128C298.285 390.128 299.055 389.596 299.055 388.756C299.055 387.916 298.285 387.384 297.137 387.384C295.989 387.384 295.219 387.916 295.219 388.756ZM295.317 395.854V391.85H302.975V395.854H295.317ZM296.339 395H301.939V392.704H296.339V395ZM314.361 383.786H315.411V387.832H317.245V388.714H315.411V392.97H314.361V383.786ZM305.961 386.138V385.284H309.055V383.786H310.105V385.284H313.199V386.138H305.961ZM306.661 389.12C306.661 387.734 307.837 386.838 309.573 386.838C311.309 386.838 312.499 387.734 312.499 389.12C312.499 390.492 311.309 391.388 309.573 391.388C307.837 391.388 306.661 390.492 306.661 389.12ZM307.655 389.12C307.655 389.988 308.425 390.562 309.573 390.562C310.721 390.562 311.491 389.988 311.491 389.12C311.491 388.238 310.721 387.664 309.573 387.664C308.425 387.664 307.655 388.238 307.655 389.12ZM307.823 395.742V392.228H308.859V394.874H315.985V395.742H307.823ZM42.664 408.948H43.672V411.244C43.672 413.26 44.652 415.332 46.276 416.228L45.632 417.04C44.456 416.368 43.602 415.08 43.168 413.582C42.734 415.22 41.824 416.606 40.592 417.348L39.92 416.578C41.6 415.612 42.664 413.4 42.664 411.3V408.948ZM46.738 419.392V408.052H47.732V412.714H49.44V407.772H50.448V420.022H49.44V413.582H47.732V419.392H46.738ZM61.4109 415.528C64.0149 415.528 65.6809 416.368 65.6809 417.768C65.6809 419.168 64.0149 420.008 61.4109 420.008C58.8209 420.008 57.1689 419.168 57.1689 417.768C57.1689 416.368 58.8209 415.528 61.4109 415.528ZM55.9369 414.366V413.512H60.5289V411.132H61.5649V413.512H66.9829V414.366H55.9369ZM57.2529 409.27V408.402H65.5689V409.452C65.5689 410.446 65.5689 411.426 65.2329 412.686L64.2109 412.574C64.5329 411.314 64.5329 410.404 64.5329 409.452V409.27H57.2529ZM58.2049 417.768C58.2049 418.636 59.4649 419.182 61.4109 419.182C63.3709 419.182 64.6309 418.636 64.6309 417.768C64.6309 416.886 63.3709 416.34 61.4109 416.34C59.4649 416.34 58.2049 416.886 58.2049 417.768ZM68.7372 409.032H75.5832V409.914H72.6712V411.566C72.6712 413.652 74.2112 415.752 75.9752 416.522L75.3732 417.362C73.9732 416.704 72.7272 415.276 72.1532 413.582C71.5932 415.388 70.3612 416.956 68.9612 417.656L68.3592 416.83C70.0812 415.99 71.6212 413.68 71.6212 411.566V409.914H68.7372V409.032ZM77.2912 420.022V407.772H78.3412V420.022H77.2912ZM89.1395 407.758H90.2035V412.77H92.1775V413.652H90.2035V420.022H89.1395V407.758ZM80.8935 416.858C84.0435 415.276 85.7515 412.868 85.9895 409.956H81.4535V409.088H87.0535C87.0535 412.546 85.4295 415.696 81.4815 417.67L80.8935 416.858ZM99.7524 415.332H100.76V416.004C100.76 417.11 101.348 418.272 102.496 418.944C103.686 418.202 104.288 416.956 104.288 416.004V415.332H105.31V416.004C105.31 417.278 106.248 418.538 107.788 419.07L107.27 419.854C106.066 419.42 105.212 418.552 104.778 417.53C104.414 418.524 103.672 419.476 102.538 419.966C101.362 419.504 100.606 418.608 100.242 417.572C99.8084 418.552 98.9684 419.406 97.8064 419.854L97.2744 419.07C98.8144 418.51 99.7524 417.18 99.7524 416.004V415.332ZM96.9524 411.356C96.9524 409.662 98.2824 408.5 100.13 408.5C101.978 408.5 103.308 409.662 103.308 411.356C103.308 413.036 101.978 414.184 100.13 414.184C98.2824 414.184 96.9524 413.036 96.9524 411.356ZM97.9744 411.356C97.9744 412.518 98.8844 413.316 100.13 413.316C101.39 413.316 102.286 412.518 102.286 411.356C102.286 410.194 101.39 409.382 100.13 409.382C98.8844 409.382 97.9744 410.194 97.9744 411.356ZM105.632 414.786V407.786H106.696V414.786H105.632ZM114.625 407.996C117.313 407.996 118.923 408.738 118.923 410.11C118.923 411.482 117.313 412.238 114.625 412.238C111.937 412.238 110.327 411.482 110.327 410.11C110.327 408.738 111.937 407.996 114.625 407.996ZM109.095 413.946V413.092H120.155V413.946H109.095ZM110.439 415.836V415.024H118.727V417.74H111.503V419.056H119.105V419.882H110.481V416.97H117.705V415.836H110.439ZM111.405 410.11C111.405 410.964 112.609 411.44 114.625 411.44C116.641 411.44 117.845 410.964 117.845 410.11C117.845 409.27 116.641 408.78 114.625 408.78C112.609 408.78 111.405 409.27 111.405 410.11ZM132.014 408.038H133.008V412.798H134.492V407.772H135.5V420.022H134.492V413.652H133.008V419.406H132.014V408.038ZM125.336 416.802V409.326H127.954V410.18H126.316V415.92C126.778 415.906 127.394 415.85 128.066 415.682L128.15 416.564C127.128 416.802 126.316 416.802 125.812 416.802H125.336ZM128.5 416.802V409.326H131.188V410.18H129.466V415.934C130.04 415.906 130.726 415.85 131.454 415.64L131.566 416.522C130.544 416.788 129.704 416.802 128.99 416.802H128.5ZM137.912 409.004H143.498V416.9H137.912V409.004ZM138.934 416.046H142.476V409.858H138.934V416.046ZM145.752 420.022V407.772H146.802V412.7H148.832V413.582H146.802V420.022H145.752ZM158.188 407.758H159.238V412.63H161.268V413.512H159.238V420.036H158.188V407.758ZM150.376 416.97V408.976H156.06V409.83H151.412V416.074C153.666 416.074 155.22 416.004 157.012 415.654L157.138 416.55C155.248 416.9 153.652 416.97 151.328 416.97H150.376ZM174.135 407.772H175.185V410.446H177.019V411.314H175.185V414.016H174.135V407.772ZM165.945 410.936C165.945 409.34 167.275 408.22 169.081 408.22C170.915 408.22 172.245 409.34 172.245 410.936C172.245 412.546 170.915 413.652 169.081 413.652C167.275 413.652 165.945 412.546 165.945 410.936ZM166.967 410.936C166.967 412.014 167.863 412.798 169.081 412.798C170.327 412.798 171.223 412.014 171.223 410.936C171.223 409.858 170.327 409.074 169.081 409.074C167.863 409.074 166.967 409.858 166.967 410.936ZM167.457 415.444V414.604H175.185V417.572H168.521V419H175.633V419.854H167.485V416.774H174.149V415.444H167.457ZM187.132 407.758H188.168V420.036H187.132V414.8H184.584V413.946H187.132V411.454H184.668V410.586H187.132V407.758ZM178.55 409.76V408.892H183.884V413.232H179.614V416.284C181.462 416.284 182.988 416.214 184.836 415.92L184.934 416.802C183.002 417.11 181.434 417.166 179.488 417.166H178.578V412.364H182.848V409.76H178.55ZM190.566 414.786H201.64V415.654H196.6V420.022H195.564V415.654H190.566V414.786ZM191.238 412.868C193.324 412.56 195.522 411.16 195.522 409.508V409.41H191.616V408.556H200.562V409.41H196.684V409.508C196.684 411.16 198.882 412.56 200.968 412.868L200.562 413.722C198.7 413.4 196.838 412.364 196.11 410.88C195.368 412.364 193.506 413.4 191.644 413.722L191.238 412.868ZM204.514 408.22H205.55V411.496H212.816V412.35H204.514V408.22ZM203.002 414.898V414.03H214.104V414.898H203.002ZM204.444 419.728V416.144H205.48V418.86H212.886V419.728H204.444ZM224.969 411.972H227.867V407.758H228.903V420.036H227.867V412.826H224.969V411.972ZM218.865 416.578C220.615 415.696 222.057 413.344 222.057 411.076V408.836H223.107V411.076C223.107 413.288 224.535 415.528 226.285 416.354L225.669 417.208C224.283 416.494 223.135 415.01 222.589 413.26C222.057 415.108 220.895 416.676 219.523 417.418L218.865 416.578ZM240.247 407.758H241.297V420.036H240.247V407.758ZM232.001 417.068V408.822H233.051V412.07H236.705V408.822H237.741V417.068H232.001ZM233.051 416.2H236.705V412.91H233.051V416.2ZM248.694 408.612H249.786V409.564C249.786 411.692 252.194 413.554 254.28 413.946L253.79 414.814C251.984 414.394 250.024 413.078 249.24 411.272C248.456 413.078 246.51 414.394 244.69 414.814L244.228 413.946C246.286 413.54 248.694 411.692 248.694 409.564V408.612ZM243.738 418.342V417.474H254.84V418.342H243.738ZM265.554 407.772H266.562V420.022H265.554V407.772ZM256.328 413.05C256.328 410.446 257.35 408.808 258.918 408.808C259.968 408.808 260.78 409.522 261.2 410.754H263.16V408.052H264.154V419.392H263.16V415.346H261.2C260.78 416.592 259.968 417.306 258.918 417.306C257.35 417.306 256.328 415.668 256.328 413.05ZM257.294 413.05C257.294 415.052 257.924 416.326 258.918 416.326C259.94 416.326 260.584 415.052 260.584 413.05C260.584 411.048 259.94 409.788 258.918 409.788C257.924 409.788 257.294 411.048 257.294 413.05ZM261.424 414.478H263.16V411.622H261.424C261.494 412.056 261.536 412.532 261.536 413.05C261.536 413.568 261.494 414.044 261.424 414.478ZM268.61 417.558H271.368V414.212C270.332 413.68 269.702 412.798 269.702 411.692C269.702 409.788 271.564 408.556 274.14 408.556C276.744 408.556 278.578 409.788 278.578 411.692C278.578 412.784 277.962 413.652 276.954 414.198V417.558H279.712V418.426H268.61V417.558ZM270.724 411.692C270.724 413.078 272.152 413.988 274.14 413.988C276.128 413.988 277.57 413.078 277.57 411.692C277.57 410.306 276.128 409.396 274.14 409.396C272.152 409.396 270.724 410.306 270.724 411.692ZM272.404 417.558H275.904V414.604C275.372 414.744 274.784 414.814 274.14 414.814C273.51 414.814 272.936 414.744 272.404 414.604V417.558ZM283.329 408.892L283.161 416.578H282.237L282.055 408.892H283.329ZM281.999 418.468C281.999 418.062 282.293 417.782 282.713 417.782C283.119 417.782 283.399 418.062 283.399 418.468C283.399 418.888 283.119 419.182 282.713 419.182C282.293 419.182 281.999 418.888 281.999 418.468Z" fill="#94A3B8"/>
<mask id="path-13-inside-1_10_8891" fill="white">
<path d="M0 0H360V48H0V0Z"/>
</mask>
<path d="M0 0H360V48H0V0Z" fill="#101013"/>
<path d="M360 47H0V49H360V47Z" fill="#1F2CB8" mask="url(#path-13-inside-1_10_8891)"/>
<rect width="107.402" height="28" transform="translate(30 12)" fill="#101013"/>
<path opacity="0.2" fill-rule="evenodd" clip-rule="evenodd" d="M52.2585 19.1546C52.7241 18.689 52.7241 17.9341 52.2585 17.4684L50.6079 15.8179C50.1423 15.3522 49.3874 15.3522 48.9218 15.8179L43.9894 20.7502L39.0572 15.818C38.5916 15.3524 37.8367 15.3524 37.3711 15.818L35.7205 17.4686C35.2549 17.9342 35.2549 18.6891 35.7205 19.1547L43.1462 26.5804C43.4519 26.8861 43.8822 26.9911 44.2736 26.8954C44.2794 26.894 44.2852 26.8925 44.291 26.891C44.4895 26.8394 44.6773 26.7358 44.8328 26.5803L52.2585 19.1546Z" fill="#4353FF"/>
<path opacity="0.35" fill-rule="evenodd" clip-rule="evenodd" d="M52.2585 22.0164C52.7241 21.5508 52.7241 20.7959 52.2585 20.3303L50.6079 18.6797C50.1423 18.2141 49.3874 18.2141 48.9218 18.6797L43.9894 23.612L39.0572 18.6798C38.5916 18.2142 37.8367 18.2142 37.3711 18.6798L35.7205 20.3304C35.2549 20.796 35.2549 21.5509 35.7205 22.0165L43.1462 29.4422C43.4519 29.7479 43.8822 29.8529 44.2736 29.7572C44.2792 29.7558 44.2849 29.7544 44.2906 29.7529C44.4892 29.7013 44.6772 29.5977 44.8328 29.4421L52.2585 22.0164Z" fill="#4353FF"/>
<path opacity="0.65" fill-rule="evenodd" clip-rule="evenodd" d="M52.2585 24.8274C52.7241 24.3618 52.7241 23.6069 52.2585 23.1413L50.6079 21.4907C50.1423 21.0251 49.3874 21.0251 48.9218 21.4907L43.9894 26.423L39.0572 21.4908C38.5916 21.0252 37.8367 21.0252 37.3711 21.4908L35.7205 23.1414C35.2549 23.607 35.2549 24.3619 35.7205 24.8276L43.1462 32.2533C43.4519 32.5589 43.8822 32.6639 44.2736 32.5683C44.2793 32.5669 44.2849 32.5654 44.2906 32.564C44.4892 32.5124 44.6772 32.4088 44.8328 32.2531L52.2585 24.8274Z" fill="#4353FF"/>
<g filter="url(#filter1_d_10_8891)">
<path fill-rule="evenodd" clip-rule="evenodd" d="M52.2585 27.6893C52.7241 27.2236 52.7241 26.4687 52.2585 26.0031L50.6079 24.3525C50.1423 23.8869 49.3874 23.8869 48.9218 24.3525L43.9894 29.2849L39.0572 24.3526C38.5916 23.887 37.8367 23.887 37.3711 24.3526L35.7205 26.0032C35.2549 26.4688 35.2549 27.2238 35.7205 27.6894L43.1462 35.1151C43.4519 35.4208 43.8822 35.5258 44.2736 35.4301C44.2791 35.4287 44.2847 35.4273 44.2903 35.4259C44.489 35.3743 44.6771 35.2707 44.8328 35.115L52.2585 27.6893Z" fill="#4353FF"/>
</g>
<path d="M119.953 25.2159H126.785V24.2303H119.953V19.4367H133.707V18.6527H119.953V16.6143H137.403V21.4527H123.649V22.2367H137.403V24.2303H130.571V25.2159H137.403V27.6799H119.953V25.2159ZM123.761 28.3071V29.3151H133.595V28.3071H137.403V35.3855H119.953V28.3071H123.761ZM133.595 32.8095V31.9135H123.761V32.8095H133.595Z" fill="#4353FF"/>
<path d="M116.903 28.7999H100.349V16.6143H116.903V19.2127H104.157V26.2015H116.903V28.7999ZM100.125 32.7871H117.127V35.3855H100.125V32.7871Z" fill="#4353FF"/>
<path d="M86.9299 26.2015C86.9299 26.6644 87.0494 27.1199 87.2883 27.5679C87.5422 28.0159 87.8483 28.434 88.2067 28.8223C88.5651 29.2105 88.9459 29.5615 89.3491 29.8751C89.7523 30.1737 90.1107 30.4127 90.4243 30.5919V34.9375C89.379 34.4148 88.4008 33.8025 87.4899 33.1007C86.579 32.4137 85.7651 31.5999 85.0483 30.6591C84.3315 31.5999 83.5176 32.4137 82.6067 33.1007C81.6958 33.8025 80.7251 34.4148 79.6947 34.9375V30.5919C80.0083 30.4127 80.3667 30.1737 80.7699 29.8751C81.1731 29.5615 81.5539 29.2105 81.9123 28.8223C82.2707 28.434 82.5694 28.0159 82.8083 27.5679C83.0622 27.1199 83.1891 26.6644 83.1891 26.2015V19.1903H79.4707V16.6143H90.6483V19.1903H86.9299V26.2015ZM93.0003 16.6143H96.8083V35.3855H93.0003V16.6143Z" fill="#4353FF"/>
<path d="M77.2504 32.0479C77.2504 32.7497 77.1458 33.3172 76.9368 33.7503C76.7277 34.1833 76.429 34.5193 76.0408 34.7583C75.6674 34.9972 75.2194 35.1615 74.6968 35.2511C74.189 35.3407 73.629 35.3855 73.0168 35.3855H64.012C63.3997 35.3855 62.8397 35.3407 62.332 35.2511C61.8242 35.1615 61.3762 34.9972 60.988 34.7583C60.6146 34.5193 60.3234 34.1833 60.1144 33.7503C59.9053 33.3172 59.8008 32.7497 59.8008 32.0479C59.8008 31.3609 59.9053 30.8009 60.1144 30.3679C60.3234 29.9199 60.6146 29.5764 60.988 29.3375C61.3762 29.0985 61.8242 28.9343 62.332 28.8447C62.8397 28.7551 63.3997 28.7103 64.012 28.7103H73.0168C73.629 28.7103 74.189 28.7551 74.6968 28.8447C75.2194 28.9343 75.6674 29.0985 76.0408 29.3375C76.429 29.5764 76.7277 29.9199 76.9368 30.3679C77.1458 30.8009 77.2504 31.3609 77.2504 32.0479ZM59.8008 16.6143H77.2504V23.4463H73.4424V19.2127H59.8008V16.6143ZM59.8008 24.3871H65.5128V21.2063H69.2984V24.3871H77.2504V26.9855H59.8008V24.3871ZM63.6088 32.0479C63.6088 32.3465 63.676 32.5407 63.8104 32.6303C63.9597 32.7348 64.1762 32.7871 64.46 32.7871H72.5688C72.8674 32.7871 73.084 32.7348 73.2184 32.6303C73.3677 32.5407 73.4424 32.3465 73.4424 32.0479C73.4424 31.7492 73.3677 31.5551 73.2184 31.4655C73.084 31.3609 72.8674 31.3087 72.5688 31.3087H64.46C64.1762 31.3087 63.9597 31.3609 63.8104 31.4655C63.676 31.5551 63.6088 31.7492 63.6088 32.0479Z" fill="#4353FF"/>
<path d="M310.5 26H325.5" stroke="#94A3B8" stroke-width="1.66667" stroke-linecap="round" stroke-linejoin="round"/>
<path d="M310.5 21H325.5" stroke="#94A3B8" stroke-width="1.66667" stroke-linecap="round" stroke-linejoin="round"/>
<path d="M310.5 31H325.5" stroke="#94A3B8" stroke-width="1.66667" stroke-linecap="round" stroke-linejoin="round"/>
</g>
<defs>
<filter id="filter0_d_10_8891" x="157.7" y="136.257" width="42.7917" height="32.028" filterUnits="userSpaceOnUse" color-interpolation-filters="sRGB">
<feFlood flood-opacity="0" result="BackgroundImageFix"/>
<feColorMatrix in="SourceAlpha" type="matrix" values="0 0 0 0 0 0 0 0 0 0 0 0 0 0 0 0 0 0 127 0" result="hardAlpha"/>
<feOffset/>
<feGaussianBlur stdDeviation="2.66667"/>
<feComposite in2="hardAlpha" operator="out"/>
<feColorMatrix type="matrix" values="0 0 0 0 0 0 0 0 0 0 0 0 0 0 0 0 0 0 0.1 0"/>
<feBlend mode="normal" in2="BackgroundImageFix" result="effect1_dropShadow_10_8891"/>
<feBlend mode="normal" in="SourceGraphic" in2="effect1_dropShadow_10_8891" result="shape"/>
</filter>
<filter id="filter1_d_10_8891" x="32.5096" y="21.1419" width="22.9593" height="17.1839" filterUnits="userSpaceOnUse" color-interpolation-filters="sRGB">
<feFlood flood-opacity="0" result="BackgroundImageFix"/>
<feColorMatrix in="SourceAlpha" type="matrix" values="0 0 0 0 0 0 0 0 0 0 0 0 0 0 0 0 0 0 127 0" result="hardAlpha"/>
<feOffset/>
<feGaussianBlur stdDeviation="1.43075"/>
<feComposite in2="hardAlpha" operator="out"/>
<feColorMatrix type="matrix" values="0 0 0 0 0 0 0 0 0 0 0 0 0 0 0 0 0 0 0.1 0"/>
<feBlend mode="normal" in2="BackgroundImageFix" result="effect1_dropShadow_10_8891"/>
<feBlend mode="normal" in="SourceGraphic" in2="effect1_dropShadow_10_8891" result="shape"/>
</filter>
<clipPath id="clip0_10_8891">
<rect width="360" height="640" fill="white"/>
</clipPath>
</defs>
</svg>
